<svg width="14" height="14" viewBox="0 0 14 14" xmlns="http://www.w3.org/2000/svg"><title>store_marker_active</title><path d="M9.778 4.886c.007-1.504-1.21-2.716-2.745-2.732-1.528-.016-2.801 1.166-2.81 2.61a2.761 2.761 0 0 0 2.761 2.774c1.484.01 2.787-1.228 2.794-2.652zM7.655 0c.864.225 1.704.487 2.418 1.07 1.763 1.438 2.371 3.606 1.596 5.862-.724 2.11-1.983 3.907-3.322 5.651-.31.405-.65.786-.965 1.186-.222.278-.498.313-.707.061-1.948-2.348-3.871-4.73-4.559-7.81C1.511 3.3 3.336.623 6.058.089 6.16.067 6.26.03 6.363 0h1.292z" fill="#EB5B5B"/></svg>