<?xml version="1.0" encoding="UTF-8"?>
<svg width="14px" height="14px" viewBox="0 0 14 14" version="1.1" xmlns="http://www.w3.org/2000/svg" xmlns:xlink="http://www.w3.org/1999/xlink">
    <!-- Generator: Sketch 50.2 (55047) - http://www.bohemiancoding.com/sketch -->
    <title>store_marker_active</title>
    <desc>Created with Sketch.</desc>
    <defs></defs>
    <g id="Page-1" stroke="none" stroke-width="1" fill="none" fill-rule="evenodd">
        <g id="store_marker_active" transform="translate(2.000000, 0.000000)" fill="#EB5B5B" fill-rule="nonzero">
            <path d="M7.77774581,4.88597326 C7.78496741,3.38158202 6.56761249,2.17041537 5.03250731,2.15401468 C3.50462372,2.13761398 2.23155934,3.32045215 2.22227443,4.76421051 C2.21298952,6.29245731 3.44324015,7.52797651 4.98401944,7.53841332 C6.46754179,7.54735915 7.77104005,6.31034898 7.77774581,4.88597326 Z M5.65535718,0 C6.51859311,0.2246427 7.35851094,0.486961325 8.0734438,1.07093816 C9.8358255,2.50827468 10.4439615,4.67605319 9.6693343,6.93189917 C8.9450742,9.04222189 7.68589702,10.8388925 6.34743828,12.5832879 C6.0373076,12.9878331 5.69779612,13.3688309 5.38160273,13.7686666 C5.16008082,14.0474685 4.88352819,14.0818477 4.67459805,13.830361 C2.72660428,11.482209 0.80379405,9.10014863 0.11637657,6.01872895 C-0.48942757,3.30041099 1.33591301,0.622594653 4.05760122,0.0880674736 C4.16113357,0.0678166642 4.26140138,0.0301407396 4.36306828,0 L5.65535718,0 Z" id="Picadilly-Way-1"></path>
        </g>
    </g>
</svg>