<?xml version="1.0" encoding="UTF-8"?>
<svg width="100px" height="82px" viewBox="0 0 100 82" version="1.1" xmlns="http://www.w3.org/2000/svg" xmlns:xlink="http://www.w3.org/1999/xlink">
    <!-- Generator: Sketch 50.2 (55047) - http://www.bohemiancoding.com/sketch -->
    <title>store01</title>
    <desc>Created with Sketch.</desc>
    <defs></defs>
    <g id="Page-1" stroke="none" stroke-width="1" fill="none" fill-rule="evenodd">
        <g id="store01" transform="translate(10.000000, 0.000000)" fill="#756E63" fill-rule="nonzero">
            <path d="M22.3542829,45.6855205 C22.3530579,45.804926 22.3512204,45.9243316 22.349383,46.0437371 L25.5195925,46.0437371 C25.5232674,45.9243316 25.5269423,45.804926 25.5306172,45.6855205 L22.3542829,45.6855205 Z M48.5869091,35.0712194 C49.3292379,34.7130028 49.9643823,34.4071783 50.8194079,33.995351 C48.4668625,33.6438357 48.2671932,33.7407004 48.5869091,35.0712194 Z M46.2006772,46.1010031 L50.3141098,46.1010031 C48.9298993,45.3321775 47.0991891,45.3577644 46.2006772,46.1010031 Z M24.4508105,35.8339529 C25.6629134,35.2405804 26.7568072,34.7056922 27.8513135,34.1701949 C24.7049908,33.621904 24.1102702,33.9204179 24.4508105,35.8339529 Z M54.3442448,58.085422 L54.3656817,57.755229 L47.0042543,57.755229 L46.9883297,58.085422 L54.3442448,58.085422 Z M4.38710821,33.8131966 C4.10842861,33.6097198 4.04473051,33.5226025 3.97796991,33.5195564 C3.35630011,33.4970156 2.73401791,33.4732563 2.11234811,33.4787392 C0.431083614,33.4933603 0.362485614,33.5871789 0.659539614,35.5195995 C1.89246691,34.9554691 3.08068301,34.4108336 4.38710821,33.8131966 Z M26.1731114,24.7140059 C27.8072147,23.8903512 29.2208244,23.1769639 30.8365532,22.3618382 C28.498095,21.9372175 26.5142641,22.8906343 26.1731114,24.7140059 Z M20.9026993,57.8819451 C20.9026993,57.7893449 20.9026993,57.6979631 20.9020868,57.6053629 L12.3597931,57.6053629 C12.3597931,57.6979631 12.3597931,57.7893449 12.3597931,57.8819451 L20.9026993,57.8819451 Z M47.3699063,22.3910804 L47.3699063,24.5087014 C48.7253302,23.8501432 49.9325332,23.263472 51.1403487,22.6768009 C51.1011498,22.5811546 51.061951,22.4861175 51.0227521,22.3910804 L47.3699063,22.3910804 Z M22.8265069,57.6248577 C24.7901258,58.390028 29.320659,58.3486015 30.356367,57.6248577 L22.8265069,57.6248577 Z M12.8638662,44.8844067 C12.575387,43.1146457 12.310182,41.4868312 12.0413022,39.8383035 C11.6578882,41.5300853 11.2903986,43.1530261 10.8977974,44.8844067 L12.8638662,44.8844067 Z M36.6110384,57.6534906 C36.6055261,57.7692409 36.5994013,57.8856004 36.5938889,58.0025691 L45.0902464,58.0025691 C45.0926963,57.8856004 45.0957587,57.7692409 45.0982087,57.6534906 L36.6110384,57.6534906 Z M36.1032904,39.1773085 C36.0297925,39.2010677 35.9562946,39.224827 35.8821842,39.2485863 C35.5771679,41.1554199 35.2721516,43.0628627 34.9708102,44.9483739 L36.9515787,44.9483739 C36.661262,42.9733086 36.3825824,41.0756131 36.1032904,39.1773085 Z M24.1133326,39.1377097 C24.066784,39.1364912 24.0202353,39.1352728 23.9742991,39.1340544 C23.5951724,41.0701302 23.2166582,43.006206 22.8314067,44.9751793 L24.8544365,44.9751793 C24.6014812,42.9824467 24.3577132,41.0597736 24.1133326,39.1377097 Z M53.4757446,33.285619 C55.791541,33.590225 57.6044892,33.4044153 59.2257304,31.9971356 C59.1191585,31.5798253 59.0040118,31.1283992 58.8692656,30.6014308 C57.1108283,31.4768685 55.4620254,32.2968679 53.4757446,33.285619 Z M31.1501443,33.1369713 C31.1666813,33.2484571 31.1832184,33.3599429 31.1997554,33.4714287 C32.0811177,33.4714287 32.9624801,33.4586352 33.8432299,33.4738655 C35.7615252,33.5073722 36.1320771,33.0541184 35.7988866,30.9029908 C34.2284814,31.6584137 32.6893129,32.3973879 31.1501443,33.1369713 Z M34.0379994,44.6486416 C32.1668653,45.5466201 30.4206776,46.3842867 28.6457033,47.2359651 C30.0011271,48.7376727 33.2754586,47.7428295 34.0379994,44.6486416 Z M49.1626427,45.0099043 C48.7865784,42.7777515 48.4190889,40.5961633 48.030775,38.2927326 C47.6553232,40.6235778 47.3043707,42.8015108 46.9485184,45.0099043 L49.1626427,45.0099043 Z M25.5391919,26.7944649 C28.6310037,25.2653427 31.406162,23.8933973 34.4930739,22.3667119 C31.8740986,21.9877821 26.2165976,24.7456849 25.5391919,26.7944649 Z M48.7700414,37.2966709 C51.0221396,36.2073999 53.19829,35.1546815 55.5765596,34.0032708 C53.1511288,33.3812653 51.3626799,34.2134489 49.5460567,35.1047261 C48.624883,35.5567614 48.2249319,36.0465679 48.7700414,37.2966709 Z M10.5976809,43.3906188 C8.27208481,44.465878 6.13697071,45.4528015 3.91917151,46.4774961 C6.32316541,48.488505 9.38006571,47.4437064 10.5976809,43.3906188 Z M36.0193803,28.7134828 C32.9061317,30.2200641 29.8694434,31.6907019 26.6006242,33.2734348 C28.3357871,33.6560199 29.6826362,33.4799576 30.9921238,32.7287992 C32.2660874,31.9989632 33.5572006,31.2679088 34.9181367,30.731193 C35.8368605,30.3693211 36.2361991,29.909366 36.0193803,28.7134828 Z M58.9262265,41.9522692 C56.2012918,43.2888804 53.6117157,44.5596967 50.9578289,45.8615828 C51.8937022,46.9825329 52.7524027,47.1281345 53.8058726,46.5268423 C54.8722047,45.9176303 55.9513989,45.2986708 57.0942913,44.862475 C58.4172535,44.3574383 58.8361916,43.4119412 58.9262265,41.9522692 Z M31.1189077,48.5415064 C31.0239729,48.5396788 30.9290381,48.5366327 30.8341033,48.5341959 C30.791842,48.9387127 30.7134443,49.3426202 30.7140567,49.747137 C30.723244,55.9483062 30.7422309,62.1482569 30.7593804,68.3494261 C30.7599929,68.5717885 30.7030321,68.820347 30.7820423,69.0116396 C30.8647274,69.2114611 31.0797088,69.3570628 31.2365043,69.5270329 C31.3553259,69.3668102 31.5366208,69.2212085 31.5788821,69.0427094 C31.6389053,68.788668 31.6027689,68.5108673 31.597869,68.242814 C31.4778224,61.9112734 31.3577759,55.5785145 31.230992,49.2463647 C31.2260921,49.0105997 31.1574941,48.7760531 31.1189077,48.5415064 Z M55.3891399,47.7531861 C54.6572233,49.5156365 54.877717,68.9689947 55.8442145,69.5745515 C55.6953812,62.4315405 55.546548,55.289748 55.3891399,47.7531861 Z M55.6874189,70.6729607 C55.7002811,70.5255314 55.7131432,70.3787113 55.7253929,70.2318912 L35.41731,70.2318912 C35.5091824,70.351906 35.6316789,70.6522475 35.7547879,70.6528567 C42.3989982,70.6760068 49.0432086,70.6729607 55.6874189,70.6729607 Z M26.3268445,45.7994431 C27.1187844,46.9697394 27.9474732,47.2304822 29.092203,46.583499 C30.5205123,45.7762931 31.9567838,44.9550753 33.4708406,44.3379435 C34.7129551,43.8322975 34.9622355,43.0336205 34.8072774,41.6945725 C31.9083977,43.0975878 29.1424266,44.4366358 26.3268445,45.7994431 Z M71.2450874,77.5174578 C71.468031,77.5168486 71.6915871,77.5162394 71.9151433,77.5150209 C71.7803971,68.3421155 71.6450385,59.1692101 71.5102923,49.9963047 C71.4214823,49.9975232 71.3332849,49.9981324 71.2450874,49.9993508 L71.2450874,77.5174578 Z M31.6125686,70.6388449 C30.9553749,69.9412971 13.3195532,69.5891725 11.2475249,70.1271068 C11.9880162,70.8118611 27.236381,71.2102857 31.6125686,70.6388449 Z M59.50441,34.2548753 C59.4486741,34.0708933 59.3929382,33.8869113 59.3372023,33.70232 C58.3639675,33.8278177 57.3062102,33.7528846 56.4346476,34.1178026 C54.2278731,35.038322 52.1160334,36.1793761 49.9447828,37.1864036 C48.9556236,37.6451402 48.3743777,38.1909942 49.0934321,39.3960156 C52.5564083,37.6859574 56.0304091,35.9704164 59.50441,34.2548753 Z M61.0515408,49.7398265 C60.2620509,50.4800191 60.431096,76.6030305 61.0515408,77.6606226 L61.0515408,49.7398265 Z M35.0890194,39.316818 C34.6915182,39.4867882 34.295242,39.6372635 33.9155029,39.8218548 C31.4502607,41.0189564 29.0021681,42.2532199 26.5148766,43.4052399 C25.8435958,43.715938 25.2090639,43.9529215 25.5930904,44.8015538 C25.9899791,45.6782099 26.6698347,45.1329652 27.1536959,44.9014646 C29.4946041,43.7817329 31.7914135,42.569401 34.1396715,41.4655088 C35.0896319,41.0195656 35.4736584,40.443251 35.0890194,39.316818 Z M59.6569181,37.4179041 C59.5423839,37.3368789 59.4278497,37.2558537 59.312703,37.1748285 C56.2031292,38.6929849 53.1186673,40.2659703 49.9711196,41.7018831 C48.8337396,42.2209317 49.0370838,42.7186579 49.60608,43.5423126 C52.6929919,42.0131904 55.7358051,40.5535184 58.716145,38.9768777 C59.1773443,38.7331929 59.3506769,37.9509647 59.6569181,37.4179041 Z M48.5452603,33.1101659 C48.5703721,33.245411 48.5954839,33.3806561 48.6212081,33.5152919 C49.923346,33.397714 51.3173562,33.5323499 52.5074097,33.1059015 C54.458779,32.4065261 56.3054138,31.3915788 58.1275493,30.386379 C58.4399154,30.213972 58.4111287,29.4280885 58.53975,28.9260978 C58.1679731,28.9047754 57.7312731,28.745771 57.4336066,28.8840621 C54.457554,30.2651458 51.5047758,31.6943572 48.5452603,33.1101659 Z M59.3347523,39.3893142 C59.0395358,39.4971448 58.7914803,39.5641581 58.5630244,39.6738163 C55.9054627,40.9452417 53.2393263,42.2002185 50.6093264,43.5270823 C50.2595989,43.7037538 49.8277987,44.3275869 49.9068089,44.6163534 C50.0801415,45.2487155 50.5370534,45.5417464 51.3345057,45.1219994 C53.5271931,43.9693702 55.7523421,42.8673057 58.0179149,41.8651519 C59.169382,41.3570691 59.5184971,40.6120028 59.3347523,39.3893142 Z M35.5208195,46.3459063 C35.3389122,46.7577336 35.2445899,46.8716563 35.2445899,46.9855789 C35.258677,54.1511307 35.2752141,61.3166825 35.3162504,68.4822343 C35.3180878,68.7941509 35.5483813,69.1036306 35.7229388,69.5410448 C35.9317953,69.2668994 36.0236677,69.2029321 36.0236677,69.1383557 C36.0248927,61.8406049 36.0230552,54.5422448 35.9985559,47.244494 C35.9973309,47.008729 35.7560128,46.7741824 35.5208195,46.3459063 Z M49.0854699,41.4789115 C49.3335253,41.4234732 49.51972,41.4167718 49.6728406,41.3418388 C52.5772327,39.9162826 55.4528381,38.4304145 58.3915293,37.078573 C59.4253997,36.6033877 59.7236787,36.0477863 59.2839163,34.9353652 C56.2141539,36.4321991 53.2044148,37.9850805 50.1132155,39.3582444 C49.0677079,39.822464 48.7277801,40.3287192 49.0854699,41.4789115 Z M11.4349445,69.2991876 C11.559891,69.2474046 11.6848374,69.1956216 11.8097838,69.1438386 C11.8097838,65.5433955 11.8116213,61.9429525 11.8091713,58.3419002 C11.8061089,54.60012 11.8073339,50.8583397 11.7767098,47.1171687 C11.7748723,46.8789668 11.5176297,46.6432018 11.2211881,46.1375558 C11.086442,46.6834098 11.0092692,46.8497246 11.0098817,47.0160395 C11.0270312,54.143211 11.0472431,61.2703824 11.0901169,68.3969446 C11.0919543,68.6985046 11.3155104,68.9988461 11.4349445,69.2991876 Z M21.9016583,69.5751607 C22.0302796,69.5398264 22.1582884,69.5044921 22.2869098,69.4691578 C22.2869098,68.5145225 22.2905847,67.5592781 22.2862973,66.6046429 C22.2593481,60.3736223 22.2348488,54.1438202 22.1913625,47.9127996 C22.1883001,47.4906157 22.0364044,47.069041 21.9022708,46.3800222 C21.6101166,46.7589521 21.5641804,46.7900219 21.5635679,46.8223101 C21.543356,54.1614873 21.5225316,61.5012738 21.525594,68.840451 C21.525594,69.0853542 21.770587,69.3302574 21.9016583,69.5751607 Z M2.07682411,44.615135 C2.94777431,46.2916864 3.13151901,46.3739301 4.54022881,45.7141534 C6.13942071,44.9648227 7.68532651,44.0796376 9.33412951,43.4661611 C10.770401,42.9324914 11.2885612,42.023547 11.2144508,40.4261931 C8.10671451,41.85114 5.09513801,43.2316145 2.07682411,44.615135 Z M46.2539632,46.7217901 C46.1198295,46.727273 45.9863083,46.7333652 45.8527871,46.7388481 C45.8276754,46.7699179 45.7811267,46.8009877 45.7811267,46.8320575 C45.7621397,54.1797637 45.7437653,61.5286883 45.7480526,68.8763945 C45.7480526,69.1225161 45.980796,69.3680286 46.2539632,69.9083996 L46.2539632,46.7217901 Z M37.0030272,22.5580045 C36.8780808,22.4142305 36.7525219,22.2704564 36.626963,22.1266824 C36.0193803,22.3240671 35.3811735,22.4574845 34.8091149,22.7298023 C32.1264414,24.0091476 29.4817419,25.369518 26.7800815,26.6086552 C25.7192618,27.0941972 25.2696996,27.8069753 25.2066139,29.1155627 C29.0156427,27.2385805 32.6764507,25.4535893 36.3078596,23.6125505 C36.6349252,23.4468449 36.7757962,22.9180488 37.0030272,22.5580045 Z M25.3389102,43.4899204 C28.3602864,41.9967417 31.3669631,40.4828498 34.4024265,39.0280515 C35.4117977,38.5443372 35.5355191,37.8376512 35.2862387,36.7788407 C34.7147926,37.0249624 34.2241941,37.2186918 33.7495201,37.4447095 C31.2242547,38.6515585 28.7259385,39.9181103 26.1694365,41.0567275 C24.9763205,41.5879604 24.5971938,42.2325067 25.3389102,43.4899204 Z M11.5794904,37.1334021 C11.4490316,37.1413219 11.3008109,37.1114705 11.189339,37.1620351 C8.25371031,38.5047384 5.32420641,39.8620628 2.38735281,41.20172 C0.967618314,41.8493124 0.797348114,42.9361466 1.95555261,44.1947787 C4.63700111,42.9251808 7.32212441,41.6519277 10.0078603,40.3817206 C11.5684657,39.6433557 11.8306082,39.1102951 11.5794904,37.1334021 Z M22.7217724,56.9973693 L30.2534699,56.9973693 C30.2534699,54.3649641 30.285319,51.8379527 30.2161085,49.3133781 C30.2069212,48.9703917 29.7573591,48.5299314 29.4008942,48.3282822 C28.7590125,47.9639734 27.8819376,47.9073167 27.3705147,47.4357866 C25.9170937,46.0943017 24.3038147,46.844851 22.7217724,46.687065 L22.7217724,56.9973693 Z M54.4808284,57.0406233 C54.4808284,54.2163164 54.4894031,51.4699886 54.4649038,48.7236608 C54.4624539,48.5037353 54.282384,48.1625766 54.0974143,48.0858158 C51.8275541,47.1427556 49.570556,46.069324 46.9632179,46.8552076 L46.9632179,57.0406233 L54.4808284,57.0406233 Z M36.4487306,46.2051783 C36.4487306,49.9250269 36.432806,53.0746531 36.4769048,56.22367 C36.4805797,56.5032983 36.869506,57.013818 37.0881623,57.0180825 C39.7561362,57.0729116 42.425335,57.054026 45.157007,57.054026 L45.157007,47.433959 C42.4124728,48.5768407 41.3185791,48.5140919 39.4309079,47.4101997 C38.6169187,46.9350143 37.6687957,46.6876743 36.4487306,46.2051783 Z M21.0380579,47.5984462 C20.2602051,47.859189 19.6213859,48.1711055 18.9488801,48.2807637 C17.3552005,48.540288 16.0383631,47.9067075 14.7533748,46.991671 C14.2070404,46.6017754 13.3605896,46.5932464 12.6390852,46.5170949 C12.5245509,46.5055199 12.2256595,47.0501554 12.2232095,47.3395311 C12.1999352,50.2369435 12.1944228,53.1355743 12.2654708,56.031159 C12.2734331,56.3455124 12.7824061,56.8998954 13.0794601,56.9145164 C15.4509924,57.0260022 17.8274246,57.0613365 20.2014068,57.0406233 C20.4825363,57.0381865 20.9964091,56.5623919 21.0019215,56.2986031 C21.0594948,53.4097197 21.0380579,50.5196179 21.0380579,47.5984462 Z M22.7401468,69.5142395 L30.2865439,69.5142395 L30.2865439,58.7738315 L22.7401468,58.7738315 L22.7401468,69.5142395 Z M46.9852673,69.5514014 L54.4826658,69.5514014 L54.4826658,58.778096 L46.9852673,58.778096 L46.9852673,69.5514014 Z M20.9927342,69.4642841 L20.9927342,58.390028 C18.3161856,58.390028 15.7688708,58.4003846 13.2221685,58.3833266 C12.4486031,58.3778437 12.2256595,58.7415433 12.2366841,59.4604135 C12.2807829,62.4047352 12.3046697,65.3490569 12.2973199,68.2933786 C12.2954825,69.0737792 12.5717121,69.4679394 13.3752891,69.4661117 C15.8809551,69.461238 18.3872336,69.4642841 20.9927342,69.4642841 Z M45.3413642,58.7190025 L36.5436654,58.7190025 C36.5436654,61.9929079 36.5418279,65.1492353 36.5442778,68.306172 C36.5448903,68.9860526 36.6698367,69.5422632 37.5579364,69.5422632 C39.8847575,69.541654 42.2115786,69.593437 44.5377872,69.5623672 C44.8085044,69.5593212 45.3040028,69.1675978 45.3070652,68.9501091 C45.3560638,65.5817759 45.3413642,62.2122242 45.3413642,58.7190025 Z M36.1694385,33.334356 L47.5763129,33.334356 C47.32887,29.8874343 47.0808146,26.5721025 46.8609334,23.2549431 C46.80336,22.3837699 46.2502883,22.2887328 45.5661453,22.2838591 C43.3722329,22.269238 41.1752582,22.3149289 38.9862456,22.1967418 C37.7245316,22.1291193 37.3674543,22.6536508 37.2559825,23.7886128 C36.9491288,26.9205718 36.5504027,30.0440018 36.1694385,33.334356 Z M47.3766436,33.8728994 C43.8579316,33.8728994 40.5884999,33.8893481 37.3202932,33.8619336 C36.4781297,33.8552322 36.2110873,34.1939541 36.2876477,34.9920219 C36.5167161,37.3837883 36.6698367,39.7834744 36.9442289,42.1697579 C37.0391637,42.9903665 37.3043686,43.8274238 37.6626709,44.5755362 C38.5979317,46.5268423 40.2295851,47.6678964 42.3757239,47.7726809 C44.2039842,47.8616258 45.2678663,46.5731424 45.9997829,45.0763085 C47.733721,41.5325221 47.3827685,37.7438326 47.3766436,33.8728994 Z M12.1607363,33.8448756 C12.3579557,36.3231501 12.5159762,38.6710533 12.7389198,41.0122551 C12.961251,43.3546753 13.4402123,45.5612412 15.6482118,47.0008092 C17.9039849,48.4720563 20.2203938,48.0651026 21.580105,45.7275561 C23.6043597,42.247737 23.3850909,38.3755854 23.3587542,34.5594813 C23.3575292,34.3194518 22.7866955,33.8808191 22.4755544,33.8759454 C19.1173127,33.8259901 15.7572337,33.8448756 12.1607363,33.8448756 Z M70.7030403,66.0654902 C69.9588741,65.9314636 69.2814684,65.8851635 68.6769482,65.651226 C68.5097405,65.5872588 68.4288928,64.6929355 68.5311773,64.6448078 C69.1693841,64.3426386 69.8706766,64.1726685 70.4623347,63.9862496 L70.4623347,49.9627981 L61.7901947,49.9627981 L61.7901947,77.5930001 L70.7030403,77.5930001 L70.7030403,66.0654902 Z M7.71962561,35.4988863 C8.47604151,34.9822745 9.23245741,34.4644443 9.98826081,33.9472233 C9.98152351,33.8290361 9.97539871,33.7114582 9.96866141,33.5932711 C8.20838661,33.7876097 6.42912491,33.8838652 4.69518691,34.2152765 C3.81259961,34.3840283 3.02739701,35.0145627 2.16930901,35.3691241 C0.311037014,36.1367313 0.215489814,36.3426449 1.10297691,38.2068337 C1.81468161,37.8760316 2.51474911,37.5135504 3.24237841,37.219301 C4.74051061,36.6125258 6.25395491,36.0423034 7.76066191,35.4568506 C6.01141181,36.328633 4.27257401,37.2217379 2.50923681,38.0642781 C0.684038914,38.9366697 0.600128814,39.0749608 1.18933701,41.1596844 C1.64624891,40.9994616 2.11051071,40.8782284 2.53802351,40.6790161 C5.07002621,39.5020185 7.59039181,38.2982155 10.121782,37.118781 C11.9972035,36.2457802 12.1080628,36.0228086 11.5121173,34.0398235 C10.2473409,34.5271931 8.98256451,35.0139535 7.71962561,35.4988863 Z M27.393789,37.7279931 C26.9589264,38.0222425 26.5608128,38.4651396 26.0824639,38.5821083 C24.6174058,38.9384973 24.4998091,39.8206363 24.9003727,41.0530723 C25.1233163,41.0244393 25.3193107,41.0469801 25.468144,40.9738747 C28.4497089,39.509329 31.4012621,37.9826437 34.4140636,36.5851113 C35.6371912,36.0179349 35.5704306,35.2545923 35.2427525,34.2433003 C34.0226873,34.693508 32.87857,35.1163011 31.7332277,35.5397035 C32.4332952,35.0480694 33.1333627,34.5564353 33.8707916,34.0386051 C30.8635025,33.3105967 28.3853982,34.3346821 25.9311808,35.5890497 C24.1941803,36.4760624 24.0649465,36.7130458 24.8764859,38.5144858 C25.7217117,38.250697 26.5571379,37.989345 27.393789,37.7279931 Z M33.3440567,27.5115075 C34.2064321,26.9942865 35.1282183,26.5519985 35.9091335,25.9330391 C36.3764576,25.5626382 36.6226756,24.915655 37.1022494,24.1913019 C36.5314157,24.1913019 36.4285186,24.1614506 36.3562457,24.1961756 C32.8222216,25.8903943 29.2943223,27.5974064 25.7572357,29.2843144 C24.8446368,29.7192918 24.5855567,30.3961264 24.7931882,31.2666904 C26.2190475,30.7360667 27.6155077,30.2157996 29.0125803,29.6955326 C27.848251,30.3004801 26.6826968,30.9029908 25.5208175,31.5109844 C24.7693014,31.9045353 23.9718492,32.2779823 24.4949093,33.5140735 C24.9432465,33.3702995 25.3713717,33.2862282 25.7504984,33.1028554 C28.9813437,31.5341344 32.1834023,29.9044923 35.4418093,28.3948649 C36.3733952,27.9635428 36.6263505,27.458506 36.3409336,26.5184919 C35.3223752,26.8559953 34.3332159,27.1837514 33.3440567,27.5115075 Z M48.9844103,30.5338083 C48.6659193,31.2015047 47.3993055,31.5804346 48.4178639,32.7336729 C51.3332807,31.2624259 54.2364478,29.7058892 57.2278125,28.3382082 C58.3100691,27.843528 58.3535553,27.4377928 57.7239233,26.6117013 C56.2631525,27.3269162 54.8532177,28.0610167 53.4059216,28.7147012 C51.9371885,29.3769147 50.4323189,29.9599306 48.9439864,30.5764531 C49.885372,30.0525308 50.8114456,29.4987571 51.7712057,29.0095598 C53.7893356,27.9818191 55.824615,26.9888035 57.9333923,25.9409589 C57.6877868,25.4048523 57.5113919,25.0192211 57.3141725,24.5891174 C54.3607818,26.0366052 51.53295,27.4773916 48.6512198,28.8042554 C47.7386208,29.2240025 47.5542636,29.7071076 47.9364527,30.6026493 C48.2849552,30.57889 48.6352952,30.5551307 48.9844103,30.5338083 Z M48.0558868,26.6774962 C49.570556,25.8477494 51.0809379,25.0100829 52.602957,24.1925204 C53.5541423,23.6813915 54.5230897,23.2013324 55.7339676,22.5781085 C52.4510613,21.8507094 50.3379966,23.7350021 47.9921886,24.8358483 C47.0391658,25.2836191 47.1218509,25.9580168 48.0895733,26.6433803 C47.9266529,27.2452818 47.7643451,27.8471833 47.6020372,28.4490848 C50.5823771,27.3458018 53.2007399,26.0725487 55.8123654,24.7846745 C56.2858144,24.5519555 56.7310891,24.2613613 57.261499,23.9555369 C57.1432899,23.4955818 57.0299806,23.0557307 56.909934,22.5902928 C55.3922024,23.3390143 53.9792052,24.0725056 52.5349714,24.7389836 C51.0570511,25.4206918 49.5478942,26.0359959 48.0558868,26.6774962 Z M70.7024547,11.383198 C69.2827997,9.9960855 67.9286628,8.5328416 66.4306073,7.2346773 C62.2338771,3.6013368 57.4252768,1.1979954 51.8051372,0.87206697 C47.2115184,0.60645053 42.6013624,0.57903599 37.9985563,0.54857539 C36.5677972,0.53882799 35.1345881,0.86536564 33.7026039,1.0383819 L33.6131815,0.61680713 C34.3003869,0.43952643 34.9875923,0.113598 35.6766351,0.10994273 C40.7743271,0.08252819 45.8946809,-0.17273165 50.9660362,0.20376138 C58.8695106,0.79104177 65.3440633,4.4061059 70.3725448,10.5219854 C70.5556771,10.7437386 70.6303999,11.0538275 70.7559588,11.32249 L70.742913,11.3374052 L70.7557138,11.3229164 C71.8110212,12.7691858 73.010262,14.1338207 73.8910119,15.6781732 C75.7474464,18.9319746 76.478138,22.4191042 76.4640509,26.2376451 C76.4052526,42.7826252 76.5693979,59.3294329 76.6551455,75.8750222 C76.6643327,77.6088396 76.6778073,77.6916924 78.4172577,77.5808158 C79.6973461,77.4991814 80.0409488,77.9615734 79.9962376,79.1690316 C79.9025278,81.7051812 80.3312655,81.5400848 77.6093932,81.5516598 C70.7477516,81.5821204 63.8861099,81.5772467 57.0250808,81.6503521 C49.941108,81.7258944 42.8583601,81.8781974 35.7756123,81.9933385 C34.9420236,82.0067412 34.1078224,81.9957754 33.2742337,81.9957754 C33.2552467,81.8477368 33.2368722,81.7009167 33.2178853,81.5534874 C33.7685071,81.4797728 34.3185164,81.3433093 34.8691381,81.3402632 C48.589359,81.2720315 62.3095799,81.2178116 76.0298008,81.1605457 C76.6128842,81.158718 77.1959675,81.1526259 77.7790509,81.1447062 C79.5919991,81.1203377 79.5264635,81.1087627 79.5870993,79.3658071 C79.6287481,78.1772344 79.1173252,77.9871603 78.0718175,77.9981261 C62.289368,78.1668778 46.5056935,78.3033413 30.7226315,78.4428509 C30.2608197,78.4465061 29.7983954,78.4026429 29.3359711,78.3807112 C29.3359711,78.2405925 29.3365836,78.1004737 29.3365836,77.9609641 C30.3214554,77.9609641 31.3063273,77.9621826 32.2911992,77.9603549 C40.8114435,77.9402509 49.3323003,77.9305035 57.8531571,77.8927324 C60.1903904,77.882985 60.1971277,77.8446046 60.1671161,75.5533582 C60.0605441,67.3021906 59.9705092,59.0498046 59.8155511,50.7998554 C59.7928893,49.5899603 60.1077053,49.146454 61.3804439,49.1714317 C64.4734807,49.2311344 67.5701923,49.2055475 70.662004,49.1074644 C71.9316803,49.0672564 72.2838577,49.5381773 72.2838577,50.7334513 C72.2807953,59.1192548 72.3291814,67.5050582 72.3610305,75.8914709 C72.362868,76.4178301 72.3610305,76.9447985 72.3610305,77.6210238 C73.4922857,77.6210238 74.5108442,77.64722 75.5269527,77.6137133 C76.5210118,77.5808158 76.2962307,76.8028521 76.2907184,76.2204454 C76.2380449,69.886468 76.1473975,63.5530998 76.1124859,57.2191225 C76.0518502,46.1174518 76.0040765,35.0151719 76.0095889,23.9141105 C76.0102014,22.6548692 75.741934,22.2339037 74.3871227,22.2704564 C69.3225048,22.4081384 64.2548244,22.4069199 59.188369,22.4568753 C58.6653089,22.461749 58.1428613,22.4574845 57.4654557,22.4574845 C58.3241562,26.1188488 59.1473327,29.5608967 59.9282479,33.0133012 C60.080756,33.6883081 60.1469041,34.4023046 60.1168925,35.0931511 C59.977859,38.3682749 60.0911682,41.6994462 58.62856,44.7564721 C58.2757701,45.4930095 57.5646779,46.0595767 57.017731,46.7047322 C57.262724,46.1990862 57.5071045,45.6934402 57.8482573,44.9891911 C56.2827519,45.7823852 54.9432527,46.4604382 53.6049784,47.1384911 C53.6790888,47.3200363 53.7531991,47.5003631 53.8273095,47.6819083 C54.9065037,47.3407495 55.9856979,46.9989816 57.0648921,46.6584321 C55.8289024,47.8281192 56.1198316,49.3395742 56.1265689,50.790108 C56.1529056,57.1685579 56.1486183,63.5463985 56.2264036,69.9242392 C56.2404906,71.0780867 55.9452741,71.4966154 54.7411334,71.4673732 C48.5556725,71.3162886 42.3683741,71.2102857 36.1804632,71.1451 C35.1067814,71.1329158 34.945086,70.6613857 34.9414111,69.7536598 C34.9126244,62.0818528 34.8477013,54.4100458 34.7944153,46.7388481 C34.7913529,46.3087444 34.7938028,45.8786407 35.0259337,45.8244208 C34.0624987,46.5700963 33.0561899,47.2712994 32.1613529,48.0912987 C31.9065602,48.3252362 31.9041103,48.9064244 31.9047228,49.3279992 C31.9181974,56.1079197 31.9506589,62.8872311 31.9782207,69.6671517 C31.9800581,70.1112672 31.9782207,70.5547736 31.9782207,71.1457093 C31.4974219,71.1816528 31.0692966,71.2431832 30.6417838,71.2401371 C24.5432954,71.1956646 18.4448069,71.12195 12.3463185,71.1091565 C11.1826017,71.1073289 10.6944532,70.8331835 10.6962906,69.5361711 C10.7073153,61.9983908 10.6252426,54.4606104 10.5750191,46.9234393 C10.5719567,46.4957725 10.5744066,46.0681056 10.5744066,45.520424 C7.19166561,48.3167072 7.06855671,48.3550876 4.33749711,47.5765146 L4.33749711,77.6411278 C12.2575085,77.7830742 19.9466141,77.9201469 27.6357196,78.0584381 C18.7718726,78.5214392 9.90802561,78.1132671 1.07112781,77.9627918 C0.985992814,78.2302359 0.920457114,78.3526875 0.910657414,78.4794036 C0.704863314,81.0740376 0.707925714,81.1093719 3.31955121,81.1319127 C12.1974853,81.207455 21.0766443,81.256192 29.9545784,81.3213776 C30.4629389,81.3250329 30.9700744,81.3877818 31.4784349,81.4218976 C31.4814973,81.552269 31.4845598,81.6820312 31.4882346,81.8117933 C30.6528085,81.873933 29.8167699,82.0024767 28.9825687,81.9884648 C19.9276271,81.8355526 10.8720731,81.6491337 1.81713151,81.5041413 C0.791223314,81.4883017 0.341661214,81.1690746 0.459870314,80.0950339 C0.546230314,79.3121964 0.476407314,78.5129102 0.476407314,77.6009198 L3.74461401,77.6009198 C3.76972581,77.0568935 3.80831221,76.627399 3.80647481,76.1979046 C3.77156331,66.9202147 3.72195221,57.643134 3.71215251,48.3654442 C3.71154001,47.534479 3.49349621,46.9831421 2.83017761,46.4445987 C1.29652141,45.2005877 0.629527914,43.4996677 0.514381214,41.5507985 C0.374735214,39.1937572 0.177515814,36.8403711 0.0372573139,34.4833298 C-0.0135786861,33.6328699 -0.213247996,32.972484 1.29284651,32.8762285 C2.73953021,32.7824099 4.11577841,31.6718164 5.53490041,31.0333622 C6.01569921,30.8170919 6.53202201,30.6775823 7.03119521,30.5057845 C6.59204531,30.8134366 6.18168201,31.1728717 5.71068291,31.4141197 C4.76807231,31.897834 3.79177521,32.3169719 2.83017761,32.7623059 C3.10211991,32.9968525 3.31465131,32.9956341 3.51677051,33.0407158 C5.35238061,33.4476694 6.96994701,32.6471648 8.63957431,32.1372543 C8.34007041,32.4199287 8.04056641,32.7019939 7.43849611,33.2685611 C9.45601351,32.8555153 11.365734,34.1567922 12.6721592,32.1835545 C12.5466003,32.8780562 12.5747745,33.3849206 13.538822,33.3806561 C16.6330837,33.3672534 19.7279578,33.4086798 22.822832,33.4446233 C23.5339242,33.4531523 23.8132162,33.173524 23.9400001,32.4449064 C24.2425665,30.7001232 24.6958035,28.9827545 25.0528808,27.2465002 C25.3897462,25.6113752 25.6812879,23.9665027 26.0542897,22.00484 C23.2209456,22.00484 20.5884958,21.9701149 17.9591083,22.0468756 C17.6240804,22.056623 17.1843179,22.5872467 17.0011856,22.9740963 C16.2839686,24.4879882 15.6880231,26.059146 14.974481,27.5754747 C14.2352146,29.147851 13.4114256,30.6812376 12.6243856,32.2322914 C12.7070707,31.7028862 12.7909808,31.1728717 12.8987777,30.489945 C12.4136916,30.6989048 12.0278276,30.8804499 11.6309389,31.0333622 C10.6234052,31.4220394 9.61035911,31.797314 8.59976291,32.1786808 C10.0299096,31.4001078 11.4337196,30.5667057 12.8993902,29.8612382 C13.8726249,29.3933634 14.0269705,28.6263655 14.2523641,27.5419681 C12.6403101,28.2809422 11.2934611,28.9370636 9.91353791,29.5164242 C8.96725251,29.9130213 7.97441831,30.2030062 7.00302101,30.5411188 C9.16753421,29.4737794 11.3167354,28.372324 13.504523,27.3543308 C14.5181815,26.8834099 15.3364582,26.3491309 15.4007688,24.9089537 C13.399176,25.8069322 11.4968053,26.6604383 9.59443461,27.5133351 C11.6811625,25.4852683 15.1190269,25.4925788 16.497725,22.4361621 C14.799311,23.1830561 13.100897,23.9311684 11.4024829,24.6786716 C11.3516469,24.5690134 11.3008109,24.458746 11.2499748,24.3490879 C12.0768262,23.9457895 12.9594135,23.6247348 13.712767,23.1148243 C14.3142248,22.7078707 15.4558923,22.7955972 15.5937008,21.6295654 L74.2082778,21.6295654 C73.5094352,20.0450049 72.8963402,18.4610537 72.1325745,16.9526447 C68.8447684,10.4535709 63.7287019,5.9271256 56.8486858,3.5219565 C54.6480361,2.7525217 52.2562919,2.2834285 49.9276333,2.1682874 C45.7278407,1.9611553 41.5090611,2.089699 37.2994688,2.1530571 C36.1602513,2.170115 35.0253212,2.454617 33.8885536,2.6166674 C33.8518047,2.4911698 33.8156682,2.3650629 33.7789193,2.238956 C34.2768676,2.0628937 34.7644036,1.7796101 35.2752141,1.7259995 C41.6787188,1.0564754 48.0711988,1.1192243 54.3926309,2.4125814 C62.5784597,4.086696 68.2255486,9.1632598 72.3524558,16.114369 C73.2748544,17.6684688 73.884887,19.4041139 74.6633523,21.0453311 C74.8042233,21.3414081 75.0633034,21.5820469 75.2678726,21.8482725 C75.4252806,21.7562815 75.5826886,21.6642905 75.7400966,21.5729087 C75.0320668,19.9377836 74.3907976,18.2703703 73.5982452,16.6766717 C72.7040207,14.8776686 71.6738251,13.1450696 70.7024279,11.3832284 L70.7024547,11.383198 Z M30.5411529,3.353022 C26.9789546,5.4078942 23.4296184,7.4554558 20.149162,9.3482775 C21.1113721,7.7655447 28.1291968,3.577212 30.5411529,3.353022 Z M21.4848639,6.5031964 C22.8568248,5.5851139 24.1595751,4.5360508 25.616671,3.7800187 C27.7217734,2.6883108 29.9377352,1.8086086 32.1065357,0.83813386 C32.1720714,0.92829724 32.237607,1.0178514 32.3025302,1.1074056 C32.185546,1.2986981 32.1089857,1.6087871 31.9460653,1.6636161 C28.4077538,2.8570625 25.0268503,4.361207 21.9601504,6.5129438 C21.8633781,6.5805664 21.7004578,6.5543703 21.5681615,6.5714282 L21.4848639,6.5031964 Z M34.619429,6.4085858 C35.1492264,5.7000722 35.704748,5.2754515 35.6496246,4.9537875 C35.5749018,4.5194193 35.0310173,4.1648579 34.6886395,3.7767899 C34.3303373,4.1313513 33.7399041,4.452406 33.6804933,4.8514399 C33.6259824,5.2181855 34.1441426,5.6683932 34.619429,6.4085858 Z M34.6647527,6.5103242 C33.8360639,6.5072782 32.8058683,5.5837127 32.940002,4.8282898 C33.1047598,3.9010691 33.5782087,3.2090043 34.7204886,3.2394649 C35.8045827,3.2674886 36.2363829,3.9406679 36.355817,4.8264622 C36.4758635,5.7110381 35.5938887,6.5139795 34.6647527,6.5103242 Z M15.8535159,12.1461446 C15.3212686,13.0410771 14.7449225,13.9128595 14.2659612,14.8345973 C13.3901112,16.5178501 12.5773469,18.2327819 11.7235463,19.9270006 C11.5734881,20.2261237 11.3511569,20.488694 11.1625123,20.7683224 C11.0461406,20.7116656 10.9303814,20.6550089 10.8146222,20.5983522 C11.41853,19.3068227 11.9189282,17.9531536 12.6520698,16.7389941 C13.6161173,15.1434678 14.7639095,13.6582089 15.832079,12.1254314 L15.8535159,12.1461446 Z M20.6875954,13.7881538 C19.6047263,13.0930429 19.9226048,12.2919291 20.6269597,11.6114392 C21.3356019,10.9266849 22.2439135,10.993089 22.890695,11.659567 C23.5454389,12.3339647 23.5742255,13.199655 22.8165847,13.8996396 C22.0620062,14.5947505 21.2908907,14.8311248 20.6428842,13.7424629 C20.9956741,13.7613485 21.4158371,13.9106054 21.6841045,13.7710959 C22.120192,13.5426413 22.4564449,13.1253311 22.8349591,12.7878277 C22.4723695,12.4149899 22.1097798,12.0415429 21.7471902,11.6687052 C21.3833756,12.0238758 20.9393257,12.3315278 20.685758,12.7531026 C20.5332498,13.0065348 20.6771832,13.4372477 20.6875954,13.7881538 Z M67.5469792,11.9967658 C66.7930132,11.5051317 66.2920025,10.9330817 65.9465624,11.0147161 C65.4890379,11.1219374 65.152785,11.7408968 64.7644711,12.1399307 C65.1521725,12.5018026 65.5447738,13.1560963 65.925738,13.149395 C66.3722377,13.140866 66.8077128,12.5578501 67.5469792,11.9967658 Z M65.9808614,10.4780003 C66.8781483,10.5858308 67.5090053,11.0092332 67.5273797,12.0473304 C67.5469792,13.1341647 66.9240845,13.6660068 65.906751,13.7257096 C64.9904771,13.7793202 64.2285489,12.9593208 64.2940845,12.0302725 C64.3632951,11.0500504 64.9414785,10.5498873 65.9808614,10.4780003 Z M26.3485263,8.9631946 C25.275457,8.4331801 25.4549144,7.7076086 26.0600471,6.9552318 C26.6535426,6.2168668 27.9618053,6.1321863 28.5112021,6.8400907 C29.0789734,7.5723635 29.1487964,8.3966274 28.4138174,9.0813817 C27.6861882,9.7594347 26.9162976,10.0713513 26.3007527,8.9150668 C26.606994,8.9388261 26.9132352,8.9686775 27.2194765,8.9851262 C27.9679301,9.0259434 28.5185519,8.6640715 28.3715561,7.9360631 C28.2870335,7.5199713 27.7376367,6.9783818 27.3174737,6.895529 C26.5745324,6.7493181 26.236442,7.3201498 26.2695161,8.0512042 C26.2829907,8.3558102 26.3215771,8.6591978 26.3485263,8.9631946 Z M18.8172576,18.9075452 C18.0810536,18.3671741 17.5855552,17.7603989 17.2940135,17.8456886 C16.8395515,17.9784968 16.2852548,18.5505469 16.228294,18.9946625 C16.1860327,19.3224186 16.859151,20.0345874 17.2284779,20.044944 C17.6443535,20.0571283 18.0773787,19.4728939 18.8172576,18.9075452 Z M17.5984174,17.1061052 C18.0583917,17.7061791 18.7045608,18.2453317 18.9275044,18.9221663 C19.1724974,19.6660141 18.0957532,20.5749585 17.2217406,20.559119 C16.3409907,20.5426702 15.5533382,19.7013484 15.6121365,18.8393134 C15.6703224,17.9784968 16.4095888,17.3187202 17.5984174,17.1061052 Z M58.5783364,5.6173412 C58.0773257,6.3416943 57.5120044,6.8040863 57.5628404,7.1836253 C57.6167389,7.58205 58.3266061,8.2345161 58.6334598,8.1754225 C59.083022,8.0901328 59.6501808,7.5132091 59.7420532,7.0611737 C59.8051389,6.7474295 59.1510076,6.2911297 58.5783364,5.6173412 Z M60.2651133,7.173878 C60.2804253,8.0547985 59.4731734,8.9661797 58.6426471,8.8741887 C57.734948,8.7736687 57.0814291,8.2850807 57.0244683,7.2823177 C56.9699573,6.3191535 57.665125,5.6362268 58.664084,5.6392729 C59.6501808,5.6423189 60.2479638,6.2155874 60.2651133,7.173878 Z M70.1592784,20.2752871 C70.7478741,19.5917512 71.3530068,19.1963726 71.3585191,18.792465 C71.363419,18.424501 70.7772732,17.8439219 70.3473105,17.7220795 C69.6907292,17.536879 69.0200609,17.8768193 69.1609319,18.7041293 C69.2381047,19.1586014 69.6809295,19.5515432 70.1592784,20.2752871 Z M70.1948024,20.2704134 C69.1131582,20.2436081 68.6366468,19.6264763 68.6507339,18.651737 C68.664821,17.6501925 69.3428392,17.1347991 70.2529882,17.0202672 C71.0351284,16.9221841 71.994276,17.9925696 71.8840291,18.7936834 C71.7523454,19.7489279 71.1968238,20.3033108 70.1948024,20.2704134 Z M51.173239,6.233681 C51.646688,5.5142016 52.1764854,5.0621663 52.1170746,4.7076049 C52.0484766,4.2976052 51.348409,3.6165062 51.122403,3.6865656 C50.6428292,3.8358225 50.1013946,4.3420777 49.964811,4.8105618 C49.8882507,5.0737414 50.5705562,5.5550189 51.173239,6.233681 Z M52.7240448,5.1919285 C52.3314435,5.4916608 51.7857215,6.1221952 51.1003536,6.3707538 C50.420498,6.6168754 49.3486536,5.4295212 49.4399135,4.6430285 C49.5513853,3.6835195 50.1571305,3.0828365 51.121178,3.1035497 C52.0870629,3.1248721 52.6529968,3.7200722 52.7240448,5.1919285 Z M13.5333709,18.4667193 C14.475369,15.7502429 16.1278468,13.4498584 18.240299,11.4418955 C16.6711188,13.7837065 15.1025511,16.1249083 13.5333709,18.4667193 Z M41.6782288,4.9313685 C41.02226,4.1247718 41.1122949,3.4387991 41.9569083,2.8119199 C42.7286363,2.237433 43.6681845,2.4585769 44.2169688,3.3431528 C44.7149171,4.1448758 44.472374,5.3310116 43.6148985,5.593582 C42.8872693,5.8159444 41.8932102,6.1997479 41.6310676,4.88385 C41.951396,5.0209227 42.3035734,5.3182181 42.582253,5.260343 C43.054477,5.1628691 43.564675,4.9210119 43.8868408,4.5798532 C44.0430238,4.4147567 43.9346144,3.7293932 43.7202455,3.5569862 C43.4029796,3.3017264 42.8566452,3.1378483 42.4573066,3.2097353 C41.4650849,3.3876252 41.7339647,4.2587984 41.6782288,4.9313685 Z M15.8322628,12.1253096 C16.3534854,11.3954736 16.7754858,10.5608531 17.4161426,9.9559056 C18.7090931,8.7387 20.1214778,7.6463828 21.4848639,6.5028918 L21.5681615,6.5717328 C19.6633409,8.4298295 17.7585203,10.2879261 15.8536996,12.1460228 L15.8322628,12.1253096 Z" id="Fill-13129" transform="translate(40.000000, 41.000000) scale(-1, 1) translate(-40.000000, -41.000000) "></path>
        </g>
    </g>
</svg>