<?xml version="1.0" encoding="UTF-8"?>
<svg width="14px" height="14px" viewBox="0 0 14 14" version="1.1" xmlns="http://www.w3.org/2000/svg" xmlns:xlink="http://www.w3.org/1999/xlink">
    <!-- Generator: Sketch 50.2 (55047) - http://www.bohemiancoding.com/sketch -->
    <title>Picadilly Way 1</title>
    <desc>Created with Sketch.</desc>
    <defs></defs>
    <g id="Page-1" stroke="none" stroke-width="1" fill="none" fill-rule="evenodd">
        <path d="M9.77774581,4.88597326 C9.78496741,3.38158202 8.56761249,2.17041537 7.03250731,2.15401468 C5.50462372,2.13761398 4.23155934,3.32045215 4.22227443,4.76421051 C4.21298952,6.29245731 5.44324015,7.52797651 6.98401944,7.53841332 C8.46754179,7.54735915 9.77104005,6.31034898 9.77774581,4.88597326 Z M7.65535718,0 C8.51859311,0.2246427 9.35851094,0.486961325 10.0734438,1.07093816 C11.8358255,2.50827468 12.4439615,4.67605319 11.6693343,6.93189917 C10.9450742,9.04222189 9.68589702,10.8388925 8.34743828,12.5832879 C8.0373076,12.9878331 7.69779612,13.3688309 7.38160273,13.7686666 C7.16008082,14.0474685 6.88352819,14.0818477 6.67459805,13.830361 C4.72660428,11.482209 2.80379405,9.10014863 2.11637657,6.01872895 C1.51057243,3.30041099 3.33591301,0.622594653 6.05760122,0.0880674736 C6.16113357,0.0678166642 6.26140138,0.0301407396 6.36306828,0 L7.65535718,0 Z" id="Picadilly-Way-1" fill="#907E59"></path>
    </g>
</svg>