<?xml version="1.0" encoding="UTF-8"?>
<svg width="100px" height="59px" viewBox="0 0 100 59" version="1.1" xmlns="http://www.w3.org/2000/svg" xmlns:xlink="http://www.w3.org/1999/xlink">
    <!-- Generator: Sketch 50.2 (55047) - http://www.bohemiancoding.com/sketch -->
    <title>store02</title>
    <desc>Created with Sketch.</desc>
    <defs></defs>
    <g id="Page-1" stroke="none" stroke-width="1" fill="none" fill-rule="evenodd">
        <g id="store02" transform="translate(11.000000, 0.000000)" fill="#756E63" fill-rule="nonzero">
            <path d="M63.4248292,0.8517121 C64.1144546,2.1156334 64.5859692,2.0980006 65.8240478,0.8517121 L63.4248292,0.8517121 Z M49.0662224,12.4597579 C49.0556345,12.3433812 49.0443407,12.2277098 49.033047,12.1113331 C48.3504802,12.2157195 47.6629725,12.3031784 46.9924053,12.4604632 C46.9472303,12.4710429 47.0284042,13.0134288 47.0608738,13.4408487 C47.8627309,13.0479892 48.4648296,12.7538735 49.0662224,12.4597579 Z M22.5463513,40.8556702 C22.5498806,40.7780858 22.5541158,40.7005013 22.5583509,40.6229169 C20.629941,40.4501151 18.7015311,40.2766081 16.7731213,40.103101 C16.7653568,40.2625018 16.7575923,40.4226079 16.7498279,40.5820087 C18.6817671,40.6729941 20.6144121,40.7639795 22.5463513,40.8556702 Z M72.5551301,12.1494201 C69.9963871,11.7713721 69.8693323,11.8510725 70.2243799,13.3858342 C71.016355,12.9654675 71.7857425,12.5577964 72.5551301,12.1494201 Z M61.0926674,24.7597161 C61.0933732,24.6623828 61.0940791,24.5650496 61.0940791,24.4677164 L55.9652993,24.4677164 C55.9645935,24.5650496 55.9645935,24.6623828 55.9638876,24.7597161 L61.0926674,24.7597161 Z M23.4936156,14.2392633 C24.9660398,13.5184331 26.0354179,12.9950907 27.104796,12.4717482 C27.0836202,12.3447918 27.0624444,12.2178354 27.0412686,12.0908791 C25.9768315,12.2545117 24.8940421,12.3511397 23.8641922,12.6382022 C23.6587869,12.6953325 23.6559634,13.4810515 23.4936156,14.2392633 Z M29.7934173,1.029451 C27.3567881,0.549838 25.7446036,1.3616536 25.4199079,3.2455453 C26.8923321,2.4993239 28.2595832,1.8067062 29.7934173,1.029451 Z M67.907747,2.0980006 C67.907747,1.9167351 67.9423341,1.7975372 67.9013942,1.756629 C67.6317556,1.4886099 67.3451764,1.2382237 67.0776554,0.9941853 C64.3262126,2.5620967 64.3262126,2.5620967 65.0716009,3.4747721 C65.5282924,3.2589463 65.9962777,3.0431204 66.4600278,2.8181255 C66.9209545,2.5945412 67.3783519,2.3617878 67.907747,2.0980006 Z M12.454669,22.7848389 C12.2055003,21.1605024 11.9711548,19.6447842 11.7198686,18.0070468 C11.3323513,19.6701755 10.9787154,21.1901256 10.607433,22.7848389 L12.454669,22.7848389 Z M14.6343651,41.9580749 C16.8062967,44.2552802 25.5582565,43.959754 26.2634108,41.6653699 C22.487059,43.8476091 18.6189455,43.3334358 14.6343651,41.9580749 Z M46.0402,3.0685117 C47.4625082,2.3483868 48.6751759,1.734059 49.8864319,1.1204364 L49.789729,0.9060212 L46.0402,0.9060212 L46.0402,3.0685117 Z M23.4343233,17.4971053 C23.3630315,17.5020425 23.2917396,17.507685 23.2204477,17.5140328 C22.8872817,19.3154029 22.5548216,21.1174783 22.2018916,23.0295826 L24.1543007,23.0295826 C23.9107789,21.1555652 23.6721982,19.3259826 23.4343233,17.4971053 Z M30.2310506,11.4751406 C30.2649319,11.5618941 30.2988132,11.649353 30.3334003,11.7368118 L34.5911486,11.7368118 C34.7287914,10.9249962 34.8523169,10.1879438 35.0245467,9.1737034 C33.266955,10.017258 31.7486499,10.7458466 30.2310506,11.4751406 Z M33.1631936,22.6508294 C31.2510185,23.5832535 29.5414252,24.4183444 27.7633635,25.2865851 C29.6225991,26.7726801 32.2561633,25.4727878 33.1631936,22.6508294 Z M72.1393785,6.7283822 C71.5401032,5.4172049 70.8455368,5.3226929 69.865803,5.9680545 C69.093592,6.4765854 68.2183254,6.8285367 67.3105893,7.2891063 C67.6261088,7.7927 67.9098645,8.2441005 68.230325,8.7554526 C69.5742827,8.0586031 70.8349489,7.4047777 72.1393785,6.7283822 Z M42.911122,54.9732207 C42.997237,54.9654623 43.0833519,54.9562932 43.168761,54.9478294 L43.168761,37.0519158 C43.0833519,37.0526211 42.997237,37.0533264 42.911122,37.0533264 L42.911122,54.9732207 Z M72.59607,7.0612901 C71.5506911,7.5966229 70.6373081,8.0734147 69.7154548,8.5332789 C68.2867939,9.2456453 68.2776177,9.3070076 69.5912234,10.6181849 C70.9450631,9.9333258 72.3292548,9.233655 73.8129728,8.483907 C73.3626341,7.9577433 73.0054688,7.5401978 72.59607,7.0612901 Z M35.0443108,37.0258192 C34.9603135,37.0293457 34.8763161,37.0328723 34.7916129,37.0371042 L34.7916129,54.9506507 C34.8763161,54.9499454 34.9603135,54.9492401 35.0443108,54.9485347 L35.0443108,37.0258192 Z M58.3680472,17.3066707 C57.9572366,19.0953452 57.4229005,21.4235843 56.8815058,23.7835625 L59.7896496,23.7835625 C59.2630779,21.3876133 58.752741,19.0593742 58.3680472,17.3066707 Z M16.1329061,36.9884376 C17.5693315,38.2643493 22.951515,38.2065136 24.8079272,36.9496453 C21.8835486,35.8606417 19.0699901,36.0983322 16.1329061,36.9884376 Z M15.2216407,40.4776223 C15.5548067,41.0905396 15.6938611,41.7478915 15.9903224,41.8290026 C18.9584642,42.6401128 21.9357823,42.9419869 24.9088652,41.7485969 C25.6796644,41.4396696 25.656371,41.028472 25.4481423,40.407091 C22.3952972,41.5602782 19.4250378,41.6011864 15.2216407,40.4776223 Z M70.5497814,23.3709542 C72.5636004,22.3517765 74.4002485,21.3234298 76.3208939,20.4918654 C77.3366266,20.0510447 77.6316762,19.5079534 77.258982,18.3829788 C74.7835305,19.6052867 72.3356076,20.8134883 69.8298041,22.0506078 C70.1220302,22.5859406 70.3013187,22.9153219 70.5497814,23.3709542 Z M77.2646289,16.2211936 C75.0496398,17.2982069 72.8939429,18.3787469 70.7071883,19.3929874 C69.7973345,19.8147647 69.6519274,20.3768994 70.0867372,21.3135554 C70.4495493,21.1710821 70.7693039,21.0737489 71.0636476,20.9256331 C72.83818,20.0362331 74.5633022,19.0290457 76.3935975,18.2771818 C77.4389764,17.8469407 77.5257971,17.2706997 77.2646289,16.2211936 Z M24.6526379,37.7614609 C21.9131948,38.7453729 19.1278707,38.6191219 16.3368997,38.0062046 C16.0707904,38.7742908 16.1491409,39.2221647 16.9594683,39.4238843 C19.2704544,40.0001252 21.5405006,40.2843665 23.8733683,39.4041355 C24.8107506,39.0500683 24.9723926,38.61489 24.6526379,37.7614609 Z M30.0115281,47.1914994 C30.7357406,46.501703 30.6524491,28.0549397 30.0115281,26.3043521 L30.0115281,47.1914994 Z M47.5486231,48.2529958 C47.579681,48.399701 47.6100329,48.5464062 47.6410908,48.6931113 L67.2950604,48.6931113 C67.1433004,48.352445 66.9604827,48.2134983 66.7741356,48.2106771 C60.6500931,48.0978269 54.5260505,47.9927353 48.4013022,47.9123295 C48.1182522,47.9080977 47.8330847,48.1337979 47.5486231,48.2529958 Z M67.220945,24.9550878 C66.332973,25.9037342 66.4755567,46.6766207 67.220945,47.7254215 L67.220945,24.9550878 Z M30.5755103,47.9863874 C30.5804513,47.850262 30.5853924,47.7134312 30.5903334,47.5766004 L10.9773037,47.5766004 C10.975892,47.7134312 10.9744803,47.850262 10.9730685,47.9863874 L30.5755103,47.9863874 Z M70.1354415,16.3862369 C72.3003146,15.3296776 74.4553056,14.3034468 76.5750035,13.2102112 C76.8291132,13.079023 76.981579,12.5895355 77.0048724,12.2545117 C77.0133427,12.1310819 76.522064,11.8933913 76.234779,11.8440194 C74.4743638,11.54144 73.0682904,12.4371879 71.6099834,13.2158537 C69.7945111,14.1849542 69.7218075,14.2590121 70.1354415,16.3862369 Z M48.1267226,25.218875 C47.9544927,25.2153484 47.7822628,25.2125272 47.6093271,25.2097059 C47.5902689,25.6138504 47.5577993,26.0179949 47.5563876,26.4221394 C47.5507407,27.8144278 47.5556817,29.2053056 47.5577993,30.5968887 C47.5648579,35.8585257 47.5662696,41.1194574 47.5923864,46.3810944 C47.594504,46.7591423 47.7766159,47.1364849 47.8754364,47.5145329 C48.0455486,47.4757406 48.2163668,47.4362431 48.3871849,47.3967455 C48.3038935,40.0043571 48.3660091,32.6084422 48.1267226,25.218875 Z M70.0274449,19.2688522 C72.4026643,18.0627665 74.7037683,16.9575406 76.9187574,15.7013777 C77.2469824,15.5158803 77.1700436,14.6166059 77.2808637,14.0467128 C76.8884054,14.0389543 76.4387725,13.9014182 76.1154886,14.0460074 C74.5040099,14.765427 72.9708817,15.677397 71.32411,16.2903143 C69.8982725,16.8214152 69.6229871,17.6960036 70.0274449,19.2688522 Z M49.1452787,23.5684419 C51.662376,22.2953515 54.0990052,20.999691 56.5949266,19.8295763 C57.637482,19.3407942 57.7165383,18.6263118 57.6233648,17.5260231 C54.8161591,18.8717609 52.1423609,20.1497885 49.472092,21.4362799 C48.0568424,22.1176125 48.0526072,22.1564048 49.1452787,23.5684419 Z M32.8003815,12.6205693 C32.7806174,12.5147723 32.7601474,12.4089753 32.7389716,12.3031784 C32.499685,12.2735552 32.2596926,12.2488692 32.0211119,12.2136036 C29.4856623,11.8390822 27.2826728,12.7581054 25.1206232,13.9232829 C23.4703222,14.8119777 23.3418557,15.0912817 24.2262984,16.8249417 C27.0843261,15.4241896 29.9416479,14.0220268 32.8003815,12.6205693 Z M26.317762,42.9596197 C22.4997645,44.4562945 18.6457682,44.3568453 14.7353031,43.1211365 L14.7353031,44.5331736 C19.5838563,45.8288341 21.6809668,45.835182 25.2752066,44.7652217 C26.2937627,44.461937 26.6339873,43.9583433 26.317762,42.9596197 Z M11.0457721,24.1891176 C10.8424844,24.4881704 10.7584871,24.5537646 10.7584871,24.620064 C10.7683691,31.757129 10.7824863,38.8948994 10.8198969,46.0326697 C10.8213086,46.256254 11.0740065,46.479133 11.2801177,46.8212099 C11.4269366,46.5404952 11.4650531,46.5024083 11.4650531,46.4636161 C11.4706999,39.3702805 11.4770527,32.2776502 11.4608179,25.1843146 C11.460112,24.8993681 11.2300016,24.6144215 11.0457721,24.1891176 Z M34.266453,14.9692625 C31.1790207,16.4525363 28.2094672,17.9252304 25.1968561,19.3027073 C23.9877177,19.8556729 23.9884236,20.5214886 24.6745196,21.5561832 C27.4386679,20.1610735 30.1096426,18.6968432 32.8843788,17.4674821 C34.0991641,16.9293281 34.614442,16.3241693 34.266453,14.9692625 Z M35.9746345,3.0127919 L35.5899407,2.623459 C32.0627576,4.3352543 28.54828,6.0717356 25.000627,7.7412121 C24.1091256,8.1608735 23.9764239,8.740641 24.1387718,9.6166401 C24.475467,9.5200122 24.742988,9.4833359 24.9730984,9.3711911 C28.2722887,7.7637821 31.5841845,6.1796485 34.8445524,4.4967711 C35.3435955,4.2393317 35.6040579,3.5192069 35.9746345,3.0127919 Z M24.1888878,19.2328813 C24.3971166,19.1785721 24.571464,19.1623499 24.7189888,19.090408 C27.6659548,17.6466317 30.5917451,16.1619473 33.5605928,14.765427 C34.7549082,14.2039976 34.4132719,13.4253318 34.1683384,12.4766854 C31.2037258,13.9119979 28.3541685,15.3522476 25.4488482,16.6683622 C24.2961786,17.190294 23.7166674,17.82296 24.1888878,19.2328813 Z M27.1464418,41.7076887 C27.1464418,42.2536012 27.0822085,42.6937166 27.1591473,43.1077355 C27.3617291,44.1967392 26.8648036,44.7398304 25.8942459,45.1326899 C23.0820991,46.2703602 20.1993664,46.0467759 17.2848699,45.7695878 C14.9950596,45.551646 13.3369941,44.8533859 13.9757975,42.0518816 L11.9408028,42.0518816 C11.9408028,43.2741895 12.0064478,44.4055119 11.9210387,45.5255494 C11.8419824,46.5743503 12.2549105,46.8973837 13.2586437,46.9037316 C17.8763806,46.9326494 22.4934118,47.0123498 27.1104429,47.0701855 C27.8819481,47.0800599 28.654159,47.0715961 29.4574279,47.0715961 L29.4574279,41.7076887 L27.1464418,41.7076887 Z M45.4063376,0.8411324 C42.502429,0.8411324 39.8900407,0.808688 37.2804757,0.8806299 C36.9367219,0.8905043 36.4136795,1.3799917 36.3113298,1.7418174 C36.0896897,2.5254205 36.0896897,3.3710911 35.9951044,4.1906651 C35.7057018,6.6797156 35.4148874,9.1687662 35.1219554,11.683208 L46.2378408,11.683208 C45.9569085,8.0191055 45.6858582,4.4819595 45.4063376,0.8411324 Z M35.6167634,36.9454135 C35.5412364,37.135848 35.4819441,37.2148431 35.48265,37.2931329 C35.558177,43.0294458 35.6273513,48.7664639 35.7508768,54.5013661 C35.7572296,54.7581002 36.2534492,55.210206 36.5336757,55.2207857 C38.2284459,55.2814426 39.9274512,55.2673363 41.6229273,55.2073847 C41.9193885,55.196805 42.4509012,54.8526121 42.4558422,54.6515979 C42.5151345,52.3268853 42.4939587,50.0007621 42.4939587,47.674639 C42.3443163,47.7860785 42.194674,47.8968126 42.0450316,48.0075468 C41.5911636,47.7148418 40.7702482,47.4454122 40.7497783,47.1237893 C40.6714278,45.9000708 41.7796282,46.3923794 42.255378,46.3289012 L42.255378,36.9454135 L35.6167634,36.9454135 Z M58.6461561,11.8870435 C58.61651,12.4703376 58.5854522,12.64455 58.6023928,12.8131198 C58.848738,15.1857937 59.1642575,17.552825 59.328017,19.9304361 C59.4367195,21.4919997 60.0007017,22.8342108 61.0969025,23.8470407 C63.3810659,25.9587486 66.4861446,26.2183039 68.1435042,22.62967 C69.6349867,19.4000405 69.3985236,15.9390683 69.5036967,12.527468 C69.5107553,12.3208112 69.1020623,11.917372 68.8832457,11.9152561 C65.5035873,11.8757585 62.1225173,11.8870435 58.6461561,11.8870435 Z M46.0423176,12.2270045 C42.5624271,12.2270045 39.2590017,12.2206567 35.9555763,12.2312364 C35.0944269,12.2340577 35.1784243,12.8152358 35.2398341,13.4260371 C35.46218,15.6301411 35.5962935,17.8448247 35.8779317,20.040465 C36.0014572,21.013092 36.2421555,22.0365015 36.7051997,22.8878146 C37.6461113,24.6228853 39.2230028,25.7196474 41.1881174,25.7873575 C42.9930018,25.8494251 44.0489686,24.5008661 44.7541228,22.9950223 C46.3437199,19.6010548 46.0649051,15.9757446 46.0423176,12.2270045 Z M11.9803309,12.1889176 C11.9422145,12.4745695 11.8631582,12.7277769 11.8822164,12.9739313 C12.060799,15.2274072 12.2203234,17.4844097 12.464551,19.7315377 C12.5669007,20.6696044 12.732072,21.6422314 13.0948841,22.5034189 C13.9122701,24.4395038 15.4919851,25.6018601 17.5418029,25.8444879 C19.444096,26.0694828 20.5664136,24.7477257 21.2941554,23.2080269 C22.8463419,19.9269095 22.7489332,16.3862369 22.6882292,12.8730715 C22.683994,12.6410234 22.2082443,12.2220673 21.947076,12.2185408 C18.6485916,12.1734007 15.3501072,12.1889176 11.9803309,12.1889176 Z M0.93926673,58.1725217 C26.444111,58.8453906 51.8155476,58.5682025 77.1474561,58.2218936 C77.4919159,55.2849692 77.4919159,55.2722735 74.9077619,55.3068339 C68.0679772,55.3985246 61.2288984,55.6009495 54.3898195,55.5812007 C37.3122394,55.5318288 20.2346594,55.383713 3.15637341,55.2765054 C2.43639607,55.2722735 1.71500702,55.2758001 0.93926673,55.2758001 L0.93926673,58.1725217 Z M12.1257381,24.0981322 C11.9704489,24.6398128 11.9033922,24.7639479 11.9033922,24.8880831 C11.9048039,30.1476041 11.9040981,35.4071252 11.9443321,40.6666463 C11.9464497,40.9494769 12.3311434,41.4833991 12.4977264,41.4678822 C13.2664081,41.3959402 14.3887257,41.4142784 14.7014218,40.9459503 C15.2258758,40.1581154 15.4228108,39.0232664 15.4108112,38.038649 C15.3952823,36.7578001 16.1441999,36.2196461 17.09217,36.1625157 C19.3699807,36.0278009 21.6619085,36.0792888 23.9467778,36.1173757 C24.8015744,36.1321873 25.1714451,36.6773944 25.3203816,37.5470457 C25.5010818,38.6043103 25.8526002,39.643942 26.247176,40.6440763 C26.3537609,40.9142112 26.8732739,41.1328584 27.2254981,41.1723559 C27.9440637,41.2534669 28.6781583,41.1970419 29.5117791,41.1970419 C29.5117791,40.6200956 29.5181318,40.1947917 29.5110732,39.7701931 C29.4581337,36.2929987 29.3282555,32.8143936 29.3783715,29.3393151 C29.4037825,27.5887276 29.4080177,26.0574925 27.1732645,25.7986425 C27.0575034,25.7852416 26.9389189,25.6787393 26.8485688,25.5884592 C25.2625011,24.0191371 23.2416235,24.8027402 21.4063872,24.6045471 C21.2087463,24.5826824 20.9645187,24.8126146 20.7711131,24.9628463 C18.4728325,26.7486995 16.8408838,26.7486995 14.4515473,25.0947399 C13.8063911,24.6482766 12.9847699,24.4564314 12.1257381,24.0981322 Z M66.3908535,6.3193006 C65.3327692,4.7288191 64.2923314,3.1263474 63.2024833,1.5570253 C62.9822549,1.241045 62.5855615,0.8481855 62.26016,0.8383111 C60.1411679,0.7734223 58.0193523,0.8051614 55.7634234,0.8051614 C56.5779859,4.2633124 57.3720786,7.5324394 58.1061731,10.814262 C58.2974612,11.6712177 58.8579142,11.6288989 59.4818945,11.6190245 C62.0942829,11.5788216 64.7066713,11.5421453 67.3197655,11.507585 C67.907747,11.4998265 68.4964343,11.5068797 69.3597013,11.5068797 C68.9510082,10.8438852 68.7004279,10.465132 68.4759644,10.0708618 C67.7609281,8.8083511 67.0557738,7.5409031 66.3477961,6.2762764 C66.7607242,6.3947691 67.2583556,6.7213291 67.56964,6.5936674 C68.6256067,6.1620157 69.6159285,5.5695525 70.6902476,5.0074179 C70.345082,4.5983362 70.0796786,4.2837664 69.7994521,3.9522692 C68.8317179,4.4565682 67.907747,4.8896305 67.0409507,5.4164996 C66.7494305,5.5942385 66.6033174,6.0110787 66.3908535,6.3193006 Z M26.4109355,10.9786 C26.312821,11.2289862 26.2154123,11.4793725 26.0424765,11.9237198 C27.1415008,11.7911209 28.1946441,11.8694107 29.0727341,11.5146381 C30.7893859,10.8220205 32.3902767,9.8508041 34.0737531,9.0679064 C34.952549,8.65953 35.2744212,8.1115016 34.973019,7.1346427 C33.5641221,7.8230284 32.2243996,8.5191726 30.8500899,9.1384377 C29.3720188,9.8035481 27.862184,10.3967166 26.3664663,11.0209188 C26.7052792,10.7754698 27.0179752,10.4778276 27.3871401,10.2937408 C29.7221254,9.1285633 32.0493463,7.943637 34.4217422,6.8609811 C35.4360632,6.3982956 35.5991169,5.7818518 35.3083025,4.8416692 C31.6441826,6.6261118 28.0753537,8.3929216 24.4740553,10.0934319 C23.6714924,10.4728904 23.496439,10.9525034 23.7526663,11.903971 C24.677343,11.5816429 25.5434334,11.2797688 26.4109355,10.9786 Z M28.2045261,3.8732741 C27.3596116,4.3606456 26.5535193,4.9397078 25.6606062,5.3114079 C24.7345177,5.6965089 24.5975808,6.3799575 24.5072307,7.333541 C24.9709809,7.1790774 25.3380281,7.1000823 25.6662531,6.9406815 C28.8348592,5.3981614 32.0077005,3.8626944 35.1473664,2.2623386 C35.5235899,2.0711987 35.7085252,1.5069481 35.982399,1.1154992 C35.8899313,0.9984172 35.7967577,0.8820405 35.7049959,0.7649585 C35.1918356,0.8869777 34.6504409,0.9419922 34.1711618,1.1437118 C33.0290801,1.6226195 31.9173504,2.1713532 30.7936211,2.6911691 C31.57642,2.1149281 32.3592189,1.5372766 33.206251,0.9130743 C30.6940948,0.7035963 25.242737,3.4331586 25.0549782,4.9601619 C26.1130626,4.5955149 27.1584414,4.2336892 28.2045261,3.8732741 Z M48.4154194,19.5749582 C48.0229611,20.1928126 47.1498121,20.7620004 48.2813059,21.5695841 C51.0913351,20.1617788 53.9098346,18.6862635 56.7904498,17.3454629 C57.7341848,16.9060528 57.9904121,16.4200919 57.6459523,15.4107886 C55.9984748,16.2070873 54.4244067,17.0012701 52.8213983,17.730564 C51.3560327,18.3963797 49.8581975,18.9909588 48.3758912,19.617277 C48.7055279,19.3725333 49.007636,19.0720698 49.3704481,18.8922149 C51.8600168,17.6572114 54.3488796,16.4186813 56.8666827,15.2457453 C57.7701837,14.8253786 58.0864091,14.2822874 57.6360703,13.2109165 C56.4403432,13.7892734 55.2523806,14.3641037 54.0630063,14.9382287 C52.1176558,15.8791166 50.1490118,16.7755698 48.2474246,17.7975687 C47.8902594,17.9887086 47.7709691,18.669336 47.6290912,19.1503596 C47.6121505,19.2089006 48.1415456,19.428253 48.4154194,19.5749582 Z M52.6399923,10.9905904 C52.4804679,11.2120587 52.3216493,11.4342324 52.1621249,11.6557008 C52.2185938,11.7960581 52.2757684,11.9364155 52.3329431,12.0767728 C53.7432516,11.7262321 55.164854,11.4144836 56.5603394,11.0124551 C57.6283058,10.7042332 57.6635988,10.0024465 57.1123221,9.1045827 C56.6344548,9.3133554 56.2088211,9.5052006 55.7796581,9.6857608 C54.7229855,10.1322241 53.6634895,10.5737502 52.6054051,11.0166869 C53.8201904,10.3078471 54.9961534,9.5171909 56.2631723,8.9190853 C57.0558533,8.5445639 57.2005546,8.0071152 56.8335073,7.4365168 C56.6958646,7.2221015 55.8749493,7.277116 55.4563742,7.441454 C53.7785447,8.1002166 52.136714,8.8499646 50.481472,9.5658575 C52.2341227,8.6165059 53.9641859,7.6198982 55.7493061,6.7361407 C56.7255107,6.2522958 56.6450427,5.8044219 56.0330619,5.1879781 C55.3469659,5.4327218 54.7413379,5.6478423 54.1364157,5.8629629 C54.4928751,5.5681419 54.8048653,5.1590602 55.2142642,5.00107 C56.3041122,4.5807033 56.3288173,4.0086943 55.6314275,3.1757193 C52.7395185,4.5644811 49.8574916,5.9017551 47.0368745,7.358227 C46.635946,7.5648838 46.5314787,8.3484868 46.1623138,9.139143 C47.276867,8.8901674 47.8952004,8.751926 48.5135339,8.6143899 C46.5660658,9.7837993 46.5660658,9.7837993 46.9027611,10.9595566 C47.735676,10.6844844 48.5692969,10.4087069 49.4036235,10.1336347 C48.6455298,10.6252381 47.8867301,11.1168414 47.1293422,11.6084448 C47.175929,11.7629084 47.2239274,11.9166667 47.2712201,12.070425 C49.0612814,11.7100099 50.8520485,11.3495948 52.6399923,10.9905904 Z M26.8803325,23.0648483 C27.2276157,22.7622689 27.5325473,22.3778731 27.9313583,22.172627 C29.6338929,21.2931013 31.3378393,20.4058172 33.0947251,19.6440789 C34.1711618,19.1764562 34.4767993,18.5169883 34.1330454,17.4103518 C30.9729096,18.9500506 27.846655,20.472822 24.3794701,22.1620473 C24.9413347,22.7150129 25.3457926,23.1121043 25.7495446,23.5084903 C25.8765994,24.5685762 26.7793945,25.2795319 27.5501938,24.8909043 C29.3543723,23.9810502 31.1338457,23.0197082 32.9479062,22.1281922 C33.9890499,21.6168401 33.9354046,20.835353 33.7674098,19.885296 C31.3886612,20.9827635 29.1348498,22.0238059 26.8803325,23.0648483 Z M50.3755929,14.4586157 C51.4852051,13.7384909 52.5955231,13.0176607 53.7425458,12.2735552 C53.599962,12.2291205 53.4453787,12.1776326 53.2893836,12.1331979 C51.3369744,11.5809376 49.789729,12.6269171 48.1380163,13.3710226 C47.115225,13.8315922 46.8907615,14.4071278 47.3488647,15.3635326 C48.0730772,15.1787406 48.7295271,15.0115813 49.385977,14.8444221 C49.0034008,15.1173783 48.6568235,15.5144697 48.2311899,15.6386048 C47.1166367,15.9651649 47.1851051,16.568913 47.7109709,17.552825 C51.122393,15.8593679 54.4745227,14.1955339 57.8259467,12.5316999 C57.7673603,12.3412653 57.708068,12.151536 57.6487758,11.9611014 C56.7078642,12.1120385 55.7140131,12.1205022 54.8380407,12.4463569 C53.3119711,13.0141341 51.8586051,13.7772831 50.3755929,14.4586157 Z M49.4057411,3.8619891 C48.7090572,4.2689549 48.0441369,4.7457466 47.3107482,5.0652536 C46.3274851,5.4933787 46.0225535,6.0745568 46.5597131,7.0895026 C49.3288024,5.7219002 52.040717,4.3486553 54.7858071,3.0459417 C55.7203659,2.6030049 55.6293099,2.0331118 55.275674,1.2664363 C54.6086362,1.5013056 53.9768914,1.722774 53.3458524,1.9449476 C53.6331375,1.6007548 53.9197167,1.2558566 54.3615851,0.725461 C53.1623288,0.8615864 52.005424,0.7959923 51.0002792,1.1542915 C49.5892648,1.6578851 48.3208341,2.5437586 46.9345248,3.1348111 C46.0507879,3.5121537 45.8538529,3.9896508 46.2413701,4.9072634 C47.3149834,4.5531961 48.3596564,4.2075926 49.4057411,3.8619891 Z M53.3119711,24.2441321 C52.9279832,24.5777452 52.5447011,24.9106531 52.0576576,25.3331357 C54.0799469,25.6201982 54.6114596,25.3394836 56.2045859,23.2009737 C55.4479039,23.4577078 54.8246294,23.6693017 54.2027666,23.8801904 C54.5881662,23.5543357 54.9248615,23.0697855 55.3688475,22.9308387 C56.7473924,22.4998923 57.203378,21.5618257 57.1772612,20.1088803 C54.6128713,21.364338 52.1353023,22.5767715 49.5624421,23.836461 C50.0325449,24.3739097 50.4002981,24.7942764 50.7680512,25.2146431 L48.8092893,25.2146431 L48.8092893,40.1926758 L53.3910274,40.1926758 C52.1981238,40.4853808 51.0200432,40.5305208 49.8469037,40.4705692 C48.982225,40.4268398 48.6942341,40.7548104 48.7182334,41.5983651 C48.7662318,43.2502088 48.7563498,44.9048737 48.7358799,46.5581281 C48.7288213,47.1837409 48.881287,47.5201754 49.5984409,47.5300497 C54.866981,47.5984651 60.1348152,47.7091993 65.4033552,47.7494022 C65.7266391,47.7522234 66.3245027,47.2881273 66.3350906,47.0229295 C66.4134411,44.9923326 66.3788539,42.9575038 66.3788539,40.7407042 L60.8985558,40.7407042 C60.8914972,40.6102212 60.8844386,40.4797383 60.8780859,40.3492553 C61.1681944,40.3055259 61.4583029,40.2244149 61.7484114,40.2251202 C62.7930844,40.2300574 63.8412867,40.2166564 64.8817246,40.2970621 C65.8854577,40.3739413 66.2609753,40.06713 66.2327409,38.9872954 C66.1289794,35.0297826 66.1254501,31.0694486 66.0816868,27.1105252 C66.0767458,26.7000329 66.0470996,26.2895405 66.0365117,26.0694828 C64.3876225,25.8233285 62.9561381,25.5200438 61.5098307,25.4177733 C59.7755324,25.2943435 58.0278227,25.3077445 56.2878774,25.3352517 C55.669544,25.3451261 55.0512105,25.5538988 54.4392297,25.6977827 C53.1326826,26.004594 51.8331941,26.3057628 50.7299347,25.1730296 C51.5903782,24.8633971 52.4508217,24.5537646 53.3119711,24.2441321 Z M73.5729804,24.3054943 C73.524276,24.5840931 73.4748658,24.8619865 73.4261615,25.1412905 C72.5057199,24.831658 71.4165777,24.727977 70.7128351,24.1531466 C70.006975,23.5762004 69.6851028,22.5288102 69.1825304,21.6669174 C68.6446649,23.1008192 67.5145829,24.3372334 67.5738751,26.2690865 C67.7976328,33.5352238 67.7919859,40.8084143 67.9218642,48.0780782 C67.9402165,49.1177099 67.614815,49.455555 66.5856709,49.4315743 C60.4002186,49.2862798 54.2140604,49.1882412 48.028608,49.0655167 C47.7872038,49.0612849 47.5479172,48.9618357 47.3241596,48.9103478 C47.2853373,48.705807 47.2401622,48.5802612 47.2387505,48.4540101 C47.1674586,40.616569 47.1166367,32.779128 47.009346,24.9416869 C46.9959346,23.9429633 47.3940397,23.5367028 47.9671982,23.5367028 C47.5098008,21.175314 47.0587562,18.8491908 46.6034764,16.4934445 C46.4058356,18.0211531 46.3119562,19.5425138 45.9929074,21.0145026 C45.5545682,23.0352251 44.7216533,24.9395709 42.744539,25.8959757 C40.3043806,27.0766702 36.506853,24.9840057 35.8362859,22.1345401 C35.457239,20.5243099 35.2694802,18.8689396 34.9956065,17.2340234 C34.7146741,17.9407473 34.6913808,18.6319543 34.614442,19.3189295 C34.3483327,21.6873714 33.7589395,23.9676493 31.8284121,25.5355607 C31.0265549,26.1872701 30.9009118,26.8347477 30.9114997,27.738254 C30.9912619,34.3117737 31.036437,40.886704 31.0865531,47.4616344 C31.0886706,47.8347451 31.0392604,48.2092664 31.0082026,48.6627829 C30.461161,48.6627829 30.0291746,48.6641935 29.5985999,48.6620775 C23.8027823,48.6352756 18.0069648,48.6077684 12.2111472,48.5795559 C10.3822636,48.5703868 10.3723816,48.5689762 10.3646171,46.7972293 C10.3328534,39.4379906 10.3081483,32.0794572 10.2777963,24.7209238 C10.2763846,24.3527503 10.243915,23.9845768 10.208622,23.2693891 C8.6176133,25.6914349 6.7492015,26.6492503 4.1918702,25.5151066 L4.1918702,54.8723609 C14.377432,55.0289405 24.2432391,55.1812881 34.2332775,55.3357517 L34.2332775,36.5546699 L43.6607455,36.5546699 C43.6607455,37.135848 43.6593338,37.6105239 43.6607455,38.0851997 C43.6727451,43.2227016 43.6819213,48.3609088 43.6967444,53.4998213 C43.7016854,55.2137325 43.7059205,55.2186697 45.4529244,55.2010369 C54.5161685,55.1072302 63.5794126,54.9866217 72.6426567,54.9464188 C73.8510893,54.9414816 74.0699059,54.5373371 74.0572004,53.4448068 C73.9506156,44.5197727 73.9061464,35.5926226 73.8115611,26.6668831 C73.8059142,26.1449513 73.5348639,25.6265461 73.3901626,25.1074355 C74.6557698,25.1659765 75.7872636,24.8648077 76.5411223,23.7701615 C76.6745298,23.5769057 76.5397105,23.2002684 76.5291226,22.9082687 C77.1149865,22.2614964 77.7982592,21.6464633 77.2265125,20.578619 C75.1731653,21.5935648 73.1177006,22.6092159 70.9965909,23.6573114 C71.7808015,24.6948272 72.6955962,24.4162285 73.5729804,24.3054943 Z M69.4818151,3.0170238 C71.3205807,5.0123551 73.1635815,7.0034544 74.9868182,9.0128919 C75.1124613,9.1511333 75.0863445,9.4255002 75.1315196,9.6363889 C74.730591,9.4212683 74.211078,8.9268437 73.9477921,9.0375779 C72.5523066,9.6258092 71.2210544,10.3663881 69.8672147,11.0540685 C71.3756378,11.365817 72.7958284,11.4779618 74.1828436,11.3122132 C74.760943,11.2430925 75.2670447,10.5829193 75.8063219,10.1914704 C76.9074637,10.8396533 77.6055593,11.6888505 77.6401465,13.0712645 C77.7001446,15.5053006 77.9133144,17.9358101 77.9944883,20.3698463 C78.0883677,23.2313022 76.9872259,24.784402 74.3656613,25.6413576 C74.3338976,25.7196474 74.2774288,25.7986425 74.2774288,25.8776376 C74.3282507,35.145454 74.392484,44.4132704 74.4242477,53.6803815 C74.4270712,54.6417235 74.7432965,54.9816845 75.7209128,54.928786 C76.3498342,54.8949309 77.4954452,55.0479839 77.5441495,55.291317 C77.7446138,56.2851034 77.6655575,57.3515371 77.5505023,58.3763572 C77.5300323,58.5505696 76.8319366,58.7558158 76.4430077,58.7621636 C73.918146,58.8087143 71.3918726,58.8051877 68.866305,58.817178 C54.2775878,58.8827722 39.6895764,58.9885692 25.1008591,58.9998542 C17.7422672,59.0054967 10.3829695,58.8460959 3.02437757,58.7459414 C2.24581384,58.7346564 1.46936769,58.621101 0.58633666,58.5470431 L0.58633666,54.9252594 L3.72882598,54.9252594 C3.72882598,52.4376195 3.73870802,50.063535 3.7267084,47.6894505 C3.68929781,40.7280085 3.62435868,33.7665665 3.62153524,26.8044192 C3.62153524,25.8571835 3.49377456,25.0425467 2.82603087,24.3548662 C3.17260819,24.3203059 3.5177738,24.2857455 3.86293941,24.2518905 C4.102226,24.5375424 4.2843379,24.9635516 4.5892695,25.0876867 C7.2305981,26.1654054 9.7836942,24.5396583 10.0738027,21.6358836 C8.3387985,22.3778731 6.6045002,23.1212733 4.8702018,23.8653788 C6.2713342,23.0761333 7.6174095,22.1571101 9.0898337,21.5357291 C10.3843812,20.9898166 10.9991854,20.2294889 10.8121324,18.6368915 C9.1364205,19.3958086 7.5207066,20.1603682 5.8774642,20.8607443 C4.9118476,21.2719419 3.90317343,21.5815745 2.91355752,21.936347 C3.25519383,21.7035936 3.57283089,21.422879 3.94128988,21.2479613 C5.888758,20.3240009 7.8623429,19.4536443 9.8013407,18.5127564 C11.313999,17.7792306 11.4968168,17.3038495 11.1495336,15.3303829 C9.3721778,16.147841 7.639997,16.980816 5.8767584,17.741849 C4.9118476,18.1586891 3.89611483,18.4542154 2.90296962,18.8047561 C3.24390007,18.572708 3.56224299,18.293404 3.93070198,18.1184863 C5.9819315,17.1472699 8.0564545,16.2261308 10.0999196,15.2401028 C11.6259892,14.5037558 11.7015162,14.2420845 11.1862383,12.3920478 C10.7881332,12.4611685 10.3815577,12.5316999 9.9721589,12.6029365 C9.8281634,12.4054488 9.6799328,12.0316327 9.5458193,12.0365699 C8.0282201,12.0937003 6.4929743,12.0937003 5.0029035,12.3483184 C3.97728875,12.5232361 3.01590724,13.0733804 2.02629134,13.4542496 C2.75615071,12.973226 3.48459837,12.4929076 4.3641001,11.9138454 L0.61315935,11.9138454 L0.61315935,13.5974282 C1.15808337,13.5276022 1.61195144,13.4697665 2.0658195,13.4119308 C1.59571665,13.7384909 1.12561381,14.0657562 0.52563269,14.4833017 C0.62586483,15.0687117 0.74515519,15.7570974 0.87926862,16.532942 C2.58603842,15.7288849 4.0803443,14.9805475 5.6106491,14.3161424 C7.0583682,13.687003 8.5442038,13.1460277 10.0130988,12.5662602 C9.7561657,12.7672745 9.5253494,13.0233032 9.2366526,13.1594287 C6.9094317,14.261128 4.5772699,15.3550689 2.23169664,16.4186813 C0.70774461,17.1098883 0.51151549,17.6036076 1.22584594,19.2843691 C1.79406335,19.1122727 2.36369248,18.9394709 2.93261575,18.7680798 C2.67074164,19.0078863 2.4413371,19.3951033 2.14275826,19.4585815 C0.71621493,19.7611609 1.18843536,20.7930342 1.35995937,21.5745213 C1.59501079,22.6423656 2.40463237,21.7995163 2.94108607,21.9017867 C2.13358208,22.5880565 1.85970834,23.284906 2.86908834,24.0381806 C2.92626301,24.0804994 2.87050006,24.2744605 2.86697076,24.3978903 C1.2851382,23.4894469 0.76350756,21.9264726 0.56586672,20.2979043 C0.29622815,18.0648825 0.31387465,15.796595 0.04141264,13.5642785 C-0.13928756,12.0788887 0.26587616,10.9525034 1.36490039,10.0052677 C1.88088415,9.5609204 2.36933936,9.0862445 2.87050006,8.6263803 C2.37498624,9.3994036 1.87876657,10.1710163 1.20961116,11.2113534 C1.92676506,10.9186484 2.38698586,10.7394988 2.84085393,10.5441271 C4.9647871,9.6286304 7.0866026,8.7096072 9.2077123,7.7941106 C8.8265479,8.0882262 8.4834998,8.4606316 8.0592779,8.6602353 C6.2452174,9.5171909 4.4071576,10.323364 2.28745959,11.2783582 C4.2321043,11.56401 5.7835848,11.6006863 7.3414181,10.7832283 C8.9719551,9.9276833 10.7090768,9.2759738 12.3996119,8.5368055 C12.0184474,8.8443221 11.6761052,9.2294231 11.2490598,9.443133 C10.0201574,10.0574609 8.7566677,10.6019627 7.5065894,11.1739718 C8.326093,11.4779618 9.1194798,11.507585 9.9114549,11.5675366 C11.5998723,11.6959036 12.802658,10.2394317 12.3953767,8.5431533 C12.9445359,7.8209125 13.4944009,7.0986717 14.0435601,6.3764309 C13.9390928,6.2812136 13.8339197,6.185291 13.7301582,6.0900737 C13.1548822,6.3390493 12.5894882,6.6113002 12.0043302,6.8306527 C11.0697714,7.1818987 10.1210954,7.4985843 9.1780662,7.8300816 C10.5587286,7.0916186 11.8822164,6.1944601 13.3391117,5.6668858 C14.4367242,5.2697944 14.7035393,4.5496696 15.0458815,3.4916996 C13.7350992,3.9797764 12.5930175,4.4050803 11.4509358,4.8296789 C11.7544557,4.5680077 12.0191533,4.228752 12.3664364,4.0622981 C13.7710981,3.3873133 15.3126966,2.94085 16.2776074,1.5774794 C15.5795118,3.3308882 14.9075329,5.0948767 14.175556,6.8334739 C13.5339291,8.35554 12.8259514,9.8486882 12.1469139,11.3566479 C12.4412576,11.5146381 12.5513718,11.6239617 12.6621918,11.6260776 C15.9197364,11.6860292 19.176575,11.7551499 22.4341195,11.7495074 C22.704464,11.7495074 23.1385679,11.2741263 23.2155067,10.9525034 C23.667963,9.0664957 24.0463041,7.1628552 24.430292,5.2613306 C24.7182829,3.8316606 24.9780395,2.3956428 25.2667363,0.8771033 C23.0538647,0.7797701 20.9313433,0.748031 18.8229391,0.5681761 C17.7168563,0.4736641 16.824649,0.6006205 16.2324324,1.6233248 C16.1759636,1.3926873 16.1209065,1.1606393 16.0884369,1.0231032 C14.260965,1.7777884 12.4652569,2.5204833 10.6695487,3.2617675 C11.0613011,2.9739997 11.424819,2.6340387 11.8497468,2.411865 C12.9501828,1.8363294 14.0781473,1.3115763 15.46728,0.6344756 C13.0624145,0.2620702 8.5173811,2.4189182 7.3181248,4.3225587 C8.4933819,3.9402789 9.6008764,3.5798638 10.7090768,3.2187434 C10.2912076,3.4761827 9.8888674,3.7674771 9.4505282,3.9847136 C7.6322325,4.8882199 5.5591213,5.4186155 4.3775114,7.6727967 C5.2958355,7.2975701 6.0221656,6.9992225 6.7484956,6.7044016 C8.3289165,6.0646825 9.910749,5.4263739 11.4911699,4.7873601 C9.9947464,5.5540356 8.5244397,6.3785469 6.9934291,7.0697539 C5.6410011,7.6798499 4.2201046,8.1397141 2.82956017,8.6665831 C4.7925572,6.3898319 6.8162582,4.1610419 8.6938462,1.8165806 C9.7822825,0.4567366 10.9674217,-0.026403 12.7504244,0.0011043 C26.4546989,0.2091717 40.1603851,0.3163793 53.8660713,0.3904372 C57.647364,0.4108913 61.4392447,0.3276643 65.2099495,0.0723409 C67.1912989,-0.0616686 68.0969175,0.9687941 68.8719519,2.4414882 C67.6712838,2.9126374 66.4699099,3.3837867 65.0151321,3.9536798 C65.6108781,4.5200464 66.1727427,5.1978524 66.2779159,5.1329636 C67.3663522,4.4643266 68.8804222,4.4057856 69.4818151,3.0170238 Z" id="Fill-13175-Copy"></path>
        </g>
    </g>
</svg>