<svg width="100" height="59" viewBox="0 0 100 59" xmlns="http://www.w3.org/2000/svg"><title>store02</title><path d="M74.425.852c.69 1.264 1.161 1.246 2.399 0h-2.4zM60.066 12.46c-.01-.117-.022-.232-.033-.349-.683.105-1.37.192-2.04.35-.046.01.035.552.068.98l2.005-.981zm-26.52 28.396l.012-.233-5.785-.52-.023.479 5.796.274zm50.01-28.707c-2.56-.378-2.687-.298-2.332 1.237l2.331-1.237zM72.092 24.76l.001-.291h-5.129l-.001.292h5.129zm-37.6-10.52l3.612-1.767-.064-.381c-1.064.164-2.147.26-3.177.547-.205.057-.208.843-.37 1.601zm6.3-13.21c-2.436-.48-4.048.333-4.373 2.217l4.373-2.217zm38.115 1.069c0-.181.034-.3-.007-.341-.27-.268-.556-.519-.823-.763-2.752 1.568-2.752 1.568-2.006 2.48.456-.215.924-.43 1.388-.656.461-.223.918-.456 1.448-.72zM23.455 22.785l-.735-4.778-1.113 4.778h1.848zm2.18 19.173c2.171 2.297 10.923 2.002 11.628-.293-3.776 2.183-7.644 1.668-11.629.293zM57.04 3.068l3.846-1.948-.096-.214h-3.75v2.163zm-22.606 14.43c-.071.004-.142.01-.214.016l-1.018 5.516h1.952l-.72-5.533zm6.797-6.023l.102.262h4.258c.138-.812.261-1.55.434-2.563l-4.794 2.301zm2.932 11.176a5551.37 5551.37 0 0 0-5.4 2.636c1.86 1.486 4.493.186 5.4-2.636zM83.14 6.728c-.599-1.31-1.293-1.405-2.273-.76-.772.509-1.648.86-2.555 1.321.315.504.599.955.92 1.466l3.908-2.027zM53.911 54.973l.258-.025V37.052l-.258.001v17.92zM83.596 7.061c-1.045.536-1.959 1.012-2.88 1.472-1.43.713-1.438.774-.125 2.085a10846.2 10846.2 0 0 1 4.222-2.134L83.596 7.06zM46.044 37.026l-.252.011v17.914l.252-.002V37.026zm23.324-19.72l-1.486 6.478h2.908l-1.422-6.477zM27.133 36.989c1.436 1.276 6.819 1.219 8.675-.038-2.924-1.09-5.738-.852-8.675.038zm-.911 3.49c.333.613.472 1.27.768 1.351 2.968.811 5.946 1.113 8.919-.08.77-.31.747-.72.54-1.342-3.054 1.153-6.024 1.194-10.227.07zM81.55 23.37c2.014-1.02 3.85-2.048 5.77-2.88 1.017-.44 1.312-.983.939-2.108l-7.43 3.668c.293.535.472.864.72 1.32zm6.715-7.15c-2.215 1.077-4.371 2.158-6.558 3.172-.91.422-1.055.984-.62 1.92.363-.142.682-.24.977-.387 1.774-.89 3.5-1.897 5.33-2.649 1.045-.43 1.132-1.006.87-2.056zM35.653 37.76c-2.74.984-5.525.858-8.316.245-.266.768-.188 1.216.622 1.418 2.311.576 4.582.86 6.914-.02.938-.354 1.1-.79.78-1.643zm5.359 9.43c.724-.69.64-19.136 0-20.887V47.19zm17.537 1.062l.092.44h19.654c-.152-.34-.335-.48-.52-.482a3468.25 3468.25 0 0 0-18.374-.299c-.283-.004-.568.222-.852.341zM78.22 24.955c-.888.949-.745 21.722 0 22.77v-22.77zM41.576 47.986l.014-.41H21.977l-.004.41h19.603zm39.56-31.6c2.164-1.056 4.32-2.083 6.439-3.176.254-.131.407-.62.43-.955.008-.124-.483-.362-.77-.411-1.76-.303-3.167.593-4.625 1.372-1.815.969-1.888 1.043-1.475 3.17zm-22.01 8.833l-.517-.01c-.019.405-.051.809-.053 1.213-.005 1.392 0 2.783.002 4.175.007 5.262.008 10.522.034 15.784.003.378.185.755.283 1.134l.512-.118c-.083-7.393-.021-14.789-.26-22.178zm21.901-5.95c2.376-1.206 4.677-2.311 6.892-3.568.328-.185.251-1.084.362-1.654-.393-.008-.842-.146-1.166-.001-1.611.72-3.144 1.631-4.79 2.244-1.427.531-1.702 1.406-1.298 2.979zm-20.882 4.3c2.517-1.274 4.954-2.57 7.45-3.74 1.042-.488 1.122-1.203 1.028-2.303-2.807 1.346-5.48 2.624-8.15 3.91-1.416.682-1.42.72-.328 2.132zM43.8 12.62l-.061-.318c-.24-.03-.48-.054-.718-.09-2.535-.374-4.738.545-6.9 1.71-1.65.889-1.78 1.168-.895 2.902 2.858-1.4 5.716-2.803 8.574-4.204zm-6.482 30.34c-3.818 1.496-7.672 1.397-11.583.161v1.412c4.849 1.296 6.946 1.302 10.54.232 1.019-.303 1.359-.807 1.043-1.805zM22.046 24.19c-.204.298-.288.364-.288.43.01 7.137.024 14.275.062 21.413.001.223.254.446.46.788.147-.28.185-.319.185-.357.006-7.094.012-14.186-.004-21.28 0-.285-.231-.57-.415-.995zm23.22-9.22c-3.087 1.483-6.057 2.955-9.07 4.333-1.208.553-1.208 1.218-.521 2.253 2.764-1.395 5.435-2.86 8.21-4.089 1.214-.538 1.73-1.143 1.381-2.498zm1.709-11.957l-.385-.39C43.063 4.335 39.548 6.072 36 7.741c-.89.42-1.024 1-.861 1.876.336-.097.604-.134.834-.246 3.3-1.607 6.611-3.191 9.872-4.874.499-.258.76-.978 1.13-1.484zm-11.786 16.22c.208-.054.382-.07.53-.143 2.947-1.443 5.873-2.928 8.842-4.325 1.194-.561.852-1.34.607-2.288-2.964 1.435-5.814 2.875-8.72 4.191-1.152.522-1.731 1.155-1.26 2.565zm2.957 22.475c0 .546-.064.986.013 1.4.203 1.089-.294 1.632-1.265 2.025-2.812 1.137-5.695.914-8.61.637-2.289-.218-3.947-.917-3.308-3.718H22.94c0 1.222.065 2.354-.02 3.474-.079 1.048.334 1.371 1.338 1.378 4.617.029 9.234.108 13.851.166.772.01 1.544.002 2.347.002v-5.364h-2.31zM56.406.84c-2.904 0-5.516-.032-8.126.04-.343.01-.866.499-.969.86-.221.784-.221 1.63-.316 2.45l-.873 7.492h11.116L56.406.841zm-9.79 36.104c-.075.19-.134.27-.133.348.075 5.736.144 11.473.268 17.208.006.257.502.71.783.72 1.694.06 3.393.046 5.089-.014.296-.01.828-.354.833-.555.06-2.325.038-4.651.038-6.977l-.449.333c-.454-.293-1.275-.563-1.295-.884-.079-1.224 1.03-.732 1.505-.795v-9.384h-6.638zm23.03-25.058c-.03.583-.06.758-.044.926.247 2.373.562 4.74.726 7.117.109 1.562.673 2.904 1.769 3.917 2.284 2.112 5.39 2.371 7.047-1.217 1.491-3.23 1.255-6.69 1.36-10.103.007-.206-.402-.61-.62-.612-3.38-.04-6.761-.028-10.238-.028zm-12.604.34c-3.48 0-6.783-.006-10.086.004-.862.003-.778.584-.716 1.195.222 2.204.356 4.419.638 6.614.123.973.364 1.997.827 2.848.941 1.735 2.518 2.832 4.483 2.9 1.805.061 2.861-1.287 3.566-2.793 1.59-3.394 1.31-7.02 1.288-10.768zm-34.062-.038c-.038.286-.117.539-.098.785.179 2.253.338 4.51.583 6.758.102.938.267 1.91.63 2.771.817 1.937 2.397 3.099 4.447 3.341 1.902.225 3.024-1.096 3.752-2.636 1.552-3.281 1.455-6.822 1.394-10.335-.004-.232-.48-.65-.74-.654-3.3-.046-6.598-.03-9.968-.03zM11.94 58.173c25.504.672 50.876.395 76.207.049.345-2.937.345-2.95-2.24-2.915-6.839.092-13.678.294-20.517.274-17.078-.05-34.155-.197-51.234-.304-.72-.005-1.441-.001-2.217-.001v2.897zm11.186-34.075c-.156.542-.223.666-.223.79.002 5.26.001 10.52.041 15.779.002.282.387.816.554.8.768-.071 1.89-.053 2.203-.521.525-.788.722-1.923.71-2.907-.016-1.281.733-1.82 1.681-1.876 2.278-.135 4.57-.084 6.855-.046.855.015 1.224.56 1.373 1.43.181 1.057.533 2.097.927 3.097.107.27.626.489.978.528.72.081 1.453.025 2.287.025 0-.577.006-1.002 0-1.427-.054-3.477-.184-6.956-.134-10.43.026-1.751.03-3.283-2.205-3.541-.115-.014-.234-.12-.324-.21-1.586-1.57-3.607-.786-5.443-.984-.197-.022-.441.208-.635.358-2.298 1.786-3.93 1.786-6.32.132-.645-.447-1.466-.639-2.325-.997zM77.39 6.32c-1.058-1.59-2.099-3.193-3.189-4.762-.22-.316-.616-.709-.942-.719-2.119-.065-4.24-.033-6.497-.033.815 3.458 1.61 6.727 2.343 10.01.191.856.752.814 1.376.804 2.612-.04 5.225-.077 7.838-.111.588-.008 1.176-.001 2.04-.001-.409-.663-.66-1.042-.884-1.436-.715-1.263-1.42-2.53-2.128-3.795.413.119.91.445 1.222.318 1.056-.432 2.046-1.024 3.12-1.587l-.89-1.055c-.968.505-1.892.938-2.759 1.464-.292.178-.438.595-.65.903zm-39.98 4.66l-.369.945c1.1-.133 2.153-.055 3.03-.41 1.717-.692 3.318-1.663 5.002-2.446.879-.408 1.2-.956.899-1.933-1.409.688-2.749 1.384-4.123 2.003-1.478.666-2.988 1.259-4.484 1.883.34-.246.652-.543 1.021-.727 2.335-1.165 4.662-2.35 7.035-3.433 1.014-.463 1.177-1.08.886-2.02-3.664 1.785-7.233 3.552-10.834 5.252-.803.38-.978.86-.721 1.811.924-.322 1.79-.624 2.658-.925zm1.794-7.106c-.845.488-1.651 1.067-2.544 1.438-.926.386-1.063 1.069-1.154 2.023.464-.155.831-.234 1.16-.393 3.168-1.543 6.34-3.078 9.48-4.679.377-.19.562-.755.835-1.147l-.277-.35c-.513.122-1.055.177-1.534.379-1.142.479-2.254 1.027-3.377 1.547L44.206.913c-2.512-.21-7.963 2.52-8.151 4.047 1.058-.364 2.103-.726 3.15-1.087zm20.21 15.702c-.392.618-1.265 1.187-.134 1.995 2.81-1.408 5.629-2.884 8.51-4.225.943-.439 1.2-.925.855-1.934-1.648.796-3.222 1.59-4.825 2.32-1.465.665-2.963 1.26-4.445 1.886.33-.244.632-.545.994-.725 2.49-1.235 4.979-2.473 7.497-3.646.903-.42 1.22-.964.77-2.035l-3.574 1.727c-1.945.941-3.914 1.838-5.816 2.86-.357.19-.476.871-.618 1.352-.017.059.513.278.786.425zm4.225-8.584l-.478.665.17.42c1.411-.35 2.833-.662 4.228-1.064 1.068-.308 1.104-1.01.552-1.907-.478.208-.903.4-1.332.58-1.057.447-2.117.889-3.175 1.332 1.215-.71 2.391-1.5 3.658-2.098.793-.374.938-.912.57-1.482-.137-.215-.958-.16-1.377.004-1.677.66-3.32 1.409-4.975 2.125 1.753-.95 3.483-1.946 5.268-2.83.977-.484.896-.932.284-1.548l-1.897.675c.357-.295.669-.704 1.078-.862 1.09-.42 1.115-.992.417-1.825-2.891 1.388-5.774 2.726-8.594 4.182-.401.207-.506.99-.875 1.781l2.352-.525c-1.948 1.17-1.948 1.17-1.611 2.346l2.5-.826-2.274 1.474.142.462 5.369-1.08zM37.88 23.065c.348-.303.653-.687 1.051-.892 1.703-.88 3.407-1.767 5.164-2.529 1.076-.468 1.382-1.127 1.038-2.234l-9.754 4.752 1.37 1.346c.128 1.06 1.03 1.772 1.801 1.383 1.804-.91 3.584-1.871 5.398-2.763 1.041-.511.987-1.293.82-2.243l-6.888 3.18zm23.496-8.606l3.367-2.185c-.143-.045-.298-.096-.454-.14-1.952-.553-3.5.493-5.151 1.237-1.023.46-1.247 1.036-.79 1.993l2.038-.52c-.383.273-.73.67-1.155.795-1.114.326-1.046.93-.52 1.914l10.115-5.021-.177-.57c-.941.15-1.935.159-2.811.484-1.526.568-2.98 1.331-4.462 2.013zm-.97-10.597c-.697.407-1.362.884-2.095 1.203-.984.428-1.288 1.01-.751 2.025 2.769-1.368 5.48-2.741 8.226-4.044.934-.443.843-1.013.49-1.78l-1.93.679 1.016-1.22c-1.2.137-2.357.071-3.362.43-1.41.503-2.68 1.389-4.065 1.98-.884.377-1.081.855-.694 1.772l3.165-1.045zm3.906 20.382l-1.254 1.09c2.022.286 2.553.005 4.147-2.133l-2.002.68c.385-.327.722-.811 1.166-.95 1.378-.431 1.834-1.37 1.808-2.822l-7.615 3.727 1.206 1.379H59.81v14.978h4.582c-1.193.292-2.371.338-3.544.278-.865-.044-1.153.284-1.129 1.127.048 1.652.038 3.307.018 4.96-.007.626.145.962.862.972 5.269.068 10.537.18 15.805.22.324.002.922-.462.932-.727.078-2.03.044-4.065.044-6.282H71.9c-.008-.13-.015-.261-.02-.392.29-.043.58-.125.87-.124 1.044.005 2.092-.008 3.133.072 1.003.077 1.379-.23 1.35-1.31-.103-3.957-.107-7.918-.15-11.876-.005-.411-.035-.821-.045-1.042-1.65-.246-3.08-.549-4.527-.651-1.734-.124-3.482-.11-5.222-.083-.618.01-1.237.219-1.849.363-1.306.307-2.606.608-3.71-.525l2.583-.929zm20.261.061l-.147.836c-.92-.31-2.01-.413-2.713-.988-.706-.577-1.028-1.624-1.53-2.486-.538 1.434-1.668 2.67-1.61 4.602.225 7.266.219 14.54.349 21.81.018 1.039-.307 1.377-1.336 1.353-6.186-.146-12.372-.244-18.557-.366-.242-.005-.481-.104-.705-.156-.039-.204-.084-.33-.085-.456-.072-7.837-.122-15.675-.23-23.512-.013-.999.385-1.405.958-1.405l-1.364-7.044c-.197 1.528-.291 3.05-.61 4.522-.438 2.02-1.271 3.925-3.248 4.881-2.44 1.18-6.238-.912-6.909-3.761-.379-1.61-.567-3.266-.84-4.901-.281.707-.305 1.398-.382 2.085-.266 2.368-.855 4.649-2.786 6.217-.801.651-.927 1.299-.917 2.202.08 6.574.125 13.149.176 19.724.002.373-.048.747-.079 1.2-.547 0-.979.002-1.41 0l-17.387-.082c-1.829-.01-1.839-.011-1.846-1.783-.032-7.359-.057-14.718-.087-22.076-.002-.368-.034-.736-.07-1.452-1.59 2.422-3.459 3.38-6.016 2.246v29.357l30.041.464V36.555h9.428c0 .58-.002 1.056 0 1.53.012 5.138.02 10.276.036 15.415.005 1.714.009 1.719 1.756 1.701 9.063-.094 18.126-.214 27.19-.255 1.208-.005 1.427-.409 1.414-1.501-.106-8.925-.15-17.852-.245-26.778-.006-.522-.277-1.04-.422-1.56 1.266.059 2.397-.242 3.151-1.337.134-.193-.001-.57-.012-.862.586-.647 1.27-1.262.698-2.33l-6.23 3.08c.784 1.037 1.699.758 2.576.647zM80.482 3.017c1.839 1.995 3.682 3.986 5.505 5.996.125.138.1.413.145.623-.401-.215-.92-.71-1.184-.598-1.396.588-2.727 1.328-4.08 2.016 1.508.312 2.928.424 4.315.258.578-.069 1.084-.73 1.623-1.12 1.101.648 1.8 1.497 1.834 2.88.06 2.433.273 4.864.354 7.298.094 2.861-1.007 4.414-3.628 5.271-.032.079-.089.158-.089.237.051 9.267.115 18.535.147 27.802.003.962.32 1.302 1.297 1.249.629-.034 1.774.119 1.823.362.2.994.122 2.06.007 3.085-.021.175-.72.38-1.108.386-2.525.047-5.051.043-7.577.055-14.588.066-29.176.172-43.765.183-7.359.005-14.718-.154-22.077-.254-.778-.011-1.555-.125-2.438-.199v-3.622h3.143c0-2.487.01-4.861-.002-7.236-.038-6.961-.103-13.922-.105-20.885 0-.947-.128-1.761-.796-2.45l1.037-.102c.24.286.421.712.726.836 2.642 1.077 5.195-.548 5.485-3.452-1.735.742-3.47 1.485-5.204 2.23 1.401-.79 2.747-1.709 4.22-2.33 1.294-.546 1.91-1.307 1.722-2.9-1.676.76-3.291 1.524-4.935 2.225-.965.41-1.974.72-2.963 1.075.341-.232.659-.513 1.027-.688 1.948-.924 3.921-1.794 5.86-2.735 1.513-.734 1.696-1.21 1.349-3.183-1.778.818-3.51 1.65-5.273 2.412-.965.417-1.98.712-2.974 1.063.34-.232.66-.512 1.028-.687 2.05-.97 4.125-1.892 6.169-2.878 1.526-.736 1.602-.998 1.086-2.848-.398.07-.804.14-1.214.21-.144-.197-.292-.57-.426-.565-1.518.057-3.053.057-4.543.311-1.026.175-1.987.725-2.977 1.106l2.338-1.54h-3.75v1.683l1.452-.185-1.54 1.071.353 2.05c1.707-.804 3.201-1.552 4.732-2.217 1.447-.629 2.933-1.17 4.402-1.75-.257.201-.488.457-.776.593a470.684 470.684 0 0 1-7.005 3.26c-1.524.69-1.72 1.185-1.006 2.865l1.707-.516c-.262.24-.492.627-.79.69-1.427.303-.955 1.335-.783 2.117.235 1.067 1.045.225 1.581.327-.807.686-1.081 1.383-.072 2.136.057.042.002.236-.002.36-1.582-.909-2.103-2.472-2.301-4.1-.27-2.233-.252-4.501-.525-6.734-.18-1.485.225-2.611 1.324-3.559.516-.444 1.004-.919 1.506-1.379l-1.661 2.585c.717-.292 1.177-.472 1.63-.667 2.125-.915 4.247-1.834 6.368-2.75-.381.294-.725.667-1.149.866-1.814.857-3.652 1.663-5.772 2.618 1.945.286 3.497.323 5.054-.495 1.631-.855 3.368-1.507 5.059-2.246-.382.307-.724.692-1.15.906-1.23.614-2.493 1.159-3.743 1.731.82.304 1.612.334 2.404.394 1.689.128 2.892-1.329 2.484-3.025l1.649-2.167-.314-.286c-.575.249-1.14.521-1.726.74-.934.352-1.883.669-2.826 1 1.38-.738 2.704-1.636 4.161-2.163 1.098-.397 1.365-1.117 1.707-2.175L22.45 4.83c.303-.262.568-.601.915-.768 1.405-.675 2.947-1.121 3.912-2.485-.698 1.754-1.37 3.518-2.102 5.256-.642 1.523-1.35 3.016-2.03 4.524.295.158.405.267.516.27 3.258.059 6.515.128 9.772.123.27 0 .705-.476.782-.797.452-1.887.83-3.79 1.214-5.692.288-1.43.548-2.865.837-4.384C34.054.78 31.93.748 29.823.568c-1.106-.094-1.998.033-2.59 1.055-.057-.23-.112-.462-.145-.6L21.67 3.262c.391-.288.755-.628 1.18-.85 1.1-.576 2.228-1.1 3.617-1.778-2.405-.372-6.95 1.785-8.149 3.689l3.391-1.104c-.418.257-.82.548-1.258.766-1.819.903-3.892 1.434-5.073 3.688.918-.375 1.644-.674 2.37-.969 1.58-.64 3.163-1.278 4.743-1.917-1.496.767-2.967 1.592-4.498 2.283-1.352.61-2.773 1.07-4.163 1.597 1.963-2.277 3.986-4.506 5.864-6.85C20.782.457 21.967-.026 23.75 0c13.705.208 27.41.315 41.116.39C68.647.41 72.44.327 76.21.071c1.981-.134 2.887.897 3.662 2.37l-3.857 1.512c.596.566 1.158 1.244 1.263 1.179 1.088-.669 2.602-.727 3.204-2.116z" fill="#756E63"/></svg>