<?xml version="1.0" encoding="utf-8"?>
<!-- Generator: Adobe Illustrator 23.0.3, SVG Export Plug-In . SVG Version: 6.00 Build 0)  -->
<svg version="1.1" id="圖層_1" xmlns="http://www.w3.org/2000/svg" xmlns:xlink="http://www.w3.org/1999/xlink" x="0px" y="0px"
	 viewBox="0 0 14 14" style="enable-background:new 0 0 14 14;" xml:space="preserve">
<style type="text/css">
	.st0{fill:#E80339;}
</style>
<title>Picadilly Way 1</title>
<g>
	<path class="st0" d="M10.9,0.3L6.3,1.5c-0.1,0-0.2,0.1-0.3,0.2L1.4,9.6c-0.1,0.2-0.1,0.5,0.2,0.6c0,0,0,0,0,0l5.8,3.4
		c0.2,0.1,0.5,0.1,0.6-0.2l4.7-7.9c0.1-0.1,0.1-0.2,0-0.3l-1.2-4.6C11.4,0.4,11.2,0.2,10.9,0.3z M9.4,4.7C8.9,4.9,8.5,4.6,8.3,4.1
		C8.2,3.6,8.5,3.2,9,3C9.4,2.9,9.9,3.2,10,3.7S9.9,4.6,9.4,4.7z"/>
</g>
</svg>
