<svg width="100" height="82" viewBox="0 0 100 82" xmlns="http://www.w3.org/2000/svg"><title>store01</title><path d="M67.646 45.686c0 .119.003.238.005.358h-3.17l-.012-.358h3.177zM41.413 35.07l-2.232-1.076c2.352-.351 2.552-.254 2.232 1.076zm2.386 11.03h-4.113c1.384-.769 3.215-.743 4.113 0zm21.75-10.267l-3.4-1.664c3.146-.548 3.74-.25 3.4 1.664zM35.656 58.085l-.022-.33h7.362l.016.33h-7.356zm49.957-24.272c.279-.203.342-.29.409-.293.622-.023 1.244-.047 1.866-.041 1.68.014 1.75.108 1.452 2.04l-3.727-1.706zm-21.786-9.099l-4.664-2.352c2.339-.425 4.323.529 4.664 2.352zm5.27 33.168v-.277h8.543v.277h-8.543zM42.63 22.392v2.117l-3.77-1.832.117-.286h3.653zm24.543 35.233c-1.963.765-6.494.724-7.53 0h7.53zm9.963-12.74l.823-5.047 1.143 5.046h-1.966zM53.39 57.652l.017.35H44.91l-.008-.35h8.487zm.508-18.476l.22.072c.306 1.906.61 3.814.912 5.7h-1.98l.848-5.772zm11.99-.04l.139-.003 1.143 5.841h-2.023l.74-5.837zm-29.363-5.851c-2.316.304-4.128.118-5.75-1.289l.357-1.396 5.393 2.685zm22.326-.149l-.05.334c-.881 0-1.762-.012-2.643.003-1.919.033-2.29-.42-1.956-2.571l4.649 2.234zm-2.888 11.512l5.392 2.587c-1.355 1.502-4.63.507-5.392-2.587zm-15.125.36l1.132-6.716 1.082 6.717h-2.214zm23.624-18.215l-8.954-4.427c2.619-.38 8.276 2.379 8.954 4.427zM41.23 37.297l-6.807-3.294c2.426-.622 4.214.21 6.03 1.102.922.452 1.322.942.777 2.192zm38.172 6.094l6.679 3.086c-2.404 2.012-5.461.967-6.679-3.086zM53.981 28.713l9.418 4.56c-1.735.383-3.082.207-4.391-.544-1.274-.73-2.565-1.461-3.926-1.998-.919-.362-1.318-.822-1.101-2.018zm-22.907 13.24l7.968 3.909c-.936 1.12-1.794 1.266-2.848.665-1.066-.61-2.145-1.228-3.288-1.665-1.323-.505-1.742-1.45-1.832-2.91zm27.807 6.589l.285-.008c.042.405.12.809.12 1.213-.01 6.201-.028 12.401-.045 18.602-.001.223.056.471-.023.663-.083.2-.298.345-.455.515-.118-.16-.3-.306-.342-.484-.06-.254-.024-.532-.019-.8.12-6.332.24-12.664.367-18.997.005-.235.074-.47.112-.704zm-24.27-.789c.732 1.763.511 21.216-.455 21.822l.455-21.822zm-.298 22.92l-.038-.441h20.308c-.092.12-.215.42-.338.42-6.644.024-13.288.021-19.932.021zm29.36-24.874c-.792 1.17-1.62 1.431-2.765.784-1.429-.807-2.865-1.628-4.379-2.245-1.242-.506-1.491-1.304-1.336-2.643l8.48 4.104zM18.755 77.517c-.223 0-.447 0-.67-.002l.405-27.519.265.003v27.518zm39.632-6.878c.658-.698 18.293-1.05 20.365-.512-.74.685-15.988 1.083-20.365.512zM30.496 34.255l.167-.553c.973.126 2.03.05 2.902.416 2.207.92 4.319 2.061 6.49 3.068.99.46 1.57 1.005.852 2.21l-10.411-5.141zM28.948 49.74c.79.74.62 26.863 0 27.92V49.74zm25.963-10.423c.397.17.794.32 1.173.505 2.466 1.197 4.914 2.431 7.401 3.583.671.31 1.306.548.922 1.397-.397.876-1.077.331-1.56.1-2.342-1.12-4.638-2.333-6.987-3.436-.95-.446-1.334-1.023-.949-2.15zm-24.568-1.9l.344-.242c3.11 1.518 6.194 3.091 9.342 4.527 1.137.519.934 1.017.365 1.84-3.087-1.529-6.13-2.988-9.11-4.565-.461-.244-.635-1.026-.94-1.56zm11.112-4.307l-.076.405c-1.302-.117-2.696.017-3.886-.41-1.952-.698-3.798-1.713-5.62-2.719-.313-.172-.284-.958-.413-1.46.372-.021.809-.18 1.106-.042 2.976 1.381 5.93 2.81 8.889 4.226zm-10.79 6.28c.295.107.544.174.772.284 2.658 1.271 5.324 2.526 7.954 3.853.35.177.781.8.702 1.09-.173.632-.63.925-1.428.505a110.23 110.23 0 0 0-6.683-3.257c-1.151-.508-1.5-1.253-1.317-2.476zm23.814 6.956c.182.412.276.526.276.64a5715.87 5715.87 0 0 1-.071 21.496c-.002.312-.232.622-.407 1.059-.209-.274-.3-.338-.3-.403-.002-7.297 0-14.596.024-21.894.002-.235.243-.47.478-.898zm-13.564-4.867c-.249-.056-.435-.062-.588-.137-2.904-1.426-5.78-2.912-8.719-4.263-1.033-.476-1.332-1.031-.892-2.144 3.07 1.497 6.08 3.05 9.17 4.423 1.046.464 1.386.97 1.029 2.12zm37.65 27.82l-.375-.155c0-3.6-.002-7.201 0-10.802.004-3.742.003-7.484.033-11.225.002-.238.26-.474.556-.98.135.546.212.713.211.879-.017 7.127-.037 14.254-.08 21.38-.002.303-.226.603-.345.903zm-10.467.276l-.385-.106c0-.954-.004-1.91 0-2.864.028-6.231.052-12.461.096-18.692.003-.422.155-.844.289-1.533.292.379.338.41.338.442.02 7.34.041 14.68.038 22.018 0 .245-.245.49-.376.735zm19.825-24.96c-.87 1.677-1.055 1.759-2.463 1.1-1.6-.75-3.145-1.635-4.794-2.249-1.436-.534-1.955-1.442-1.88-3.04l9.137 4.19zm-44.177 2.107l.401.017c.025.03.072.062.072.093.019 7.348.037 14.697.033 22.044 0 .247-.233.492-.506 1.032V46.722zm9.251-24.164l.376-.431c.608.197 1.246.33 1.818.603 2.683 1.28 5.327 2.64 8.029 3.879 1.06.485 1.51 1.198 1.573 2.507-3.809-1.877-7.47-3.662-11.1-5.503-.328-.166-.469-.695-.696-1.055zM64.661 43.49c-3.021-1.493-6.028-3.007-9.063-4.462-1.01-.484-1.134-1.19-.884-2.25.571.247 1.062.44 1.536.667 2.526 1.207 5.024 2.473 7.58 3.612 1.194.531 1.573 1.176.831 2.433zm13.76-6.357c.13.008.278-.022.39.029 2.935 1.343 5.865 2.7 8.802 4.04 1.42.647 1.59 1.734.431 2.993-2.681-1.27-5.366-2.543-8.052-3.813-1.56-.739-1.823-1.272-1.571-3.249zM67.278 56.997h-7.531c0-2.632-.032-5.159.037-7.684.01-.343.459-.783.815-.985.642-.364 1.52-.42 2.03-.892 1.454-1.342 3.067-.591 4.65-.749v10.31zm-31.759.044c0-2.825-.008-5.571.016-8.317.003-.22.183-.561.368-.638 2.27-.943 4.526-2.017 7.134-1.23V57.04h-7.518zm18.032-10.836c0 3.72.016 6.87-.028 10.019-.004.28-.393.79-.611.794-2.668.055-5.337.036-8.069.036v-9.62c2.745 1.143 3.838 1.08 5.726-.024.814-.475 1.762-.722 2.982-1.205zm15.41 1.393c.779.261 1.418.573 2.09.683 1.594.26 2.91-.374 4.196-1.29.546-.39 1.392-.398 2.114-.474.114-.011.413.533.416.823.023 2.897.029 5.796-.042 8.691-.008.315-.517.869-.814.884-2.372.111-4.748.146-7.122.126-.282-.003-.795-.479-.8-.742-.058-2.89-.037-5.78-.037-8.7zM67.26 69.514h-7.547v-10.74h7.547v10.74zm-24.245.037h-7.498V58.778h7.498v10.773zm25.992-.087V58.39c2.677 0 5.224.01 7.77-.007.774-.005.997.359.986 1.077a505.542 505.542 0 0 0-.06 8.833c.002.78-.275 1.175-1.078 1.173-2.506-.005-5.012-.002-7.618-.002zM44.66 58.72h8.797c0 3.274.002 6.43 0 9.587 0 .68-.126 1.236-1.014 1.236-2.327 0-4.654.051-6.98.02-.27-.003-.766-.394-.77-.612-.048-3.368-.033-6.738-.033-10.231zm9.172-25.385H42.424c.247-3.447.495-6.762.715-10.08.058-.87.61-.965 1.295-.97 2.194-.015 4.39.03 6.58-.087 1.261-.068 1.619.457 1.73 1.592.307 3.132.706 6.255 1.087 9.545zm-11.208.539c3.52 0 6.789.016 10.057-.011.842-.007 1.109.332 1.032 1.13-.229 2.392-.382 4.791-.656 7.178-.095.82-.36 1.657-.719 2.406-.935 1.95-2.567 3.092-4.713 3.197-1.828.089-2.892-1.2-3.624-2.697-1.734-3.543-1.383-7.332-1.377-11.203zm35.216-.028c-.197 2.478-.355 4.826-.578 7.167-.222 2.343-.701 4.55-2.91 5.989-2.255 1.471-4.571 1.064-5.931-1.273-2.024-3.48-1.805-7.352-1.779-11.169.001-.24.572-.678.883-.683 3.359-.05 6.719-.031 10.315-.031zm-58.542 32.22c.744-.134 1.422-.18 2.026-.414.167-.064.248-.958.146-1.006-.638-.302-1.34-.472-1.931-.659V49.963h8.672v27.63h-8.913V66.065zM82.28 35.5l-2.268-1.552.02-.354c1.76.195 3.539.29 5.273.622.882.169 1.668.8 2.526 1.154 1.858.768 1.954.974 1.066 2.838-.712-.331-1.412-.693-2.14-.988-1.498-.606-3.011-1.177-4.518-1.762 1.75.872 3.488 1.765 5.252 2.607 1.825.873 1.909 1.011 1.32 3.096-.457-.16-.922-.282-1.349-.481-2.532-1.177-5.052-2.38-7.584-3.56-1.875-.873-1.986-1.096-1.39-3.08l3.792 1.46zm-19.674 2.229c.435.294.833.737 1.312.854 1.465.356 1.582 1.239 1.182 2.471-.223-.029-.42-.006-.568-.08-2.982-1.464-5.933-2.99-8.946-4.388-1.223-.567-1.156-1.33-.829-2.342l3.51 1.297-2.138-1.501c3.007-.728 5.486.296 7.94 1.55 1.737.887 1.866 1.124 1.055 2.925-.846-.263-1.681-.525-2.518-.786zm-5.95-10.216c-.862-.518-1.784-.96-2.565-1.579-.467-.37-.714-1.017-1.193-1.742.57 0 .673-.03.746.005 3.534 1.694 7.062 3.401 10.599 5.088.912.435 1.171 1.112.964 1.983l-4.22-1.571c1.165.604 2.33 1.207 3.492 1.815.752.394 1.55.767 1.026 2.003-.448-.144-.876-.228-1.255-.411-3.231-1.569-6.433-3.199-9.692-4.708-.931-.431-1.184-.936-.899-1.877l2.997.994zm-15.64 3.022c.318.668 1.585 1.046.566 2.2-2.915-1.472-5.818-3.028-8.81-4.396-1.082-.494-1.126-.9-.496-1.726 1.46.715 2.87 1.449 4.318 2.103 1.469.662 2.974 1.245 4.462 1.861-.941-.523-1.867-1.077-2.827-1.566-2.018-1.028-4.054-2.021-6.162-3.069l.619-1.352c2.953 1.448 5.781 2.888 8.663 4.215.912.42 1.097.903.715 1.799-.349-.024-.7-.048-1.048-.07zm.928-3.857c-1.515-.83-3.025-1.667-4.547-2.484-.951-.512-1.92-.992-3.131-1.615 3.283-.727 5.396 1.157 7.742 2.258.953.448.87 1.122-.098 1.807l.488 1.806c-2.98-1.103-5.599-2.376-8.21-3.664-.474-.233-.92-.524-1.45-.83l.352-1.365c1.518.749 2.93 1.483 4.375 2.149 1.478.682 2.987 1.297 4.48 1.938zM19.298 11.383c1.42-1.387 2.773-2.85 4.271-4.148C27.766 3.6 32.575 1.198 38.195.872 42.788.606 47.399.58 52 .55c1.431-.01 2.864.316 4.296.49l.09-.422C55.7.44 55.012.114 54.323.11 49.226.083 44.105-.173 39.034.204 31.13.79 24.656 4.406 19.627 10.522c-.183.222-.257.532-.383.8l.013.015-.013-.014c-1.055 1.446-2.254 2.81-3.135 4.355-1.856 3.254-2.587 6.741-2.573 10.56.059 16.545-.105 33.091-.191 49.637-.01 1.734-.023 1.817-1.762 1.706-1.28-.082-1.624.38-1.58 1.588.094 2.536-.334 2.371 2.388 2.383 6.861.03 13.723.025 20.584.098 7.084.076 14.167.228 21.25.343.833.014 1.667.003 2.5.003l.057-.443c-.55-.073-1.1-.21-1.651-.213-13.72-.068-27.44-.122-41.16-.18-.584-.001-1.167-.007-1.75-.015-1.813-.025-1.747-.036-1.808-1.78-.042-1.188.47-1.378 1.515-1.367 15.783.169 31.566.305 47.35.445.461.004.924-.04 1.386-.062v-.42h-2.955c-8.52-.02-17.041-.03-25.562-.068-2.337-.01-2.344-.048-2.314-2.34.106-8.25.196-16.503.351-24.753.023-1.21-.292-1.654-1.564-1.629-3.093.06-6.19.035-9.282-.064-1.27-.04-1.622.431-1.622 1.626.003 8.386-.045 16.772-.077 25.158-.002.527 0 1.054 0 1.73-1.131 0-2.15.026-3.166-.007-.994-.033-.77-.811-.764-1.394.053-6.334.144-12.667.179-19 .06-11.103.108-22.205.102-33.306 0-1.26.268-1.68 1.623-1.644 5.064.138 10.132.137 15.199.187.523.005 1.045 0 1.723 0-.86 3.662-1.682 7.104-2.463 10.556a7.97 7.97 0 0 0-.189 2.08c.14 3.275.026 6.606 1.488 9.663.353.737 1.064 1.304 1.611 1.949l-.83-1.716 4.243 2.15-.222.543-3.238-1.024c1.236 1.17.945 2.682.938 4.132-.026 6.379-.022 12.756-.1 19.134-.013 1.154.282 1.573 1.486 1.543 6.185-.15 12.373-.257 18.56-.322 1.074-.012 1.236-.484 1.24-1.391.028-7.672.093-15.344.147-23.015.003-.43 0-.86-.232-.915.964.746 1.97 1.447 2.865 2.267.254.234.257.815.256 1.237-.013 6.78-.046 13.56-.073 20.34-.002.443 0 .887 0 1.478.48.036.909.097 1.336.094 6.099-.044 12.197-.118 18.296-.13 1.163-.003 1.652-.277 1.65-1.574-.011-7.538.07-15.075.121-22.613.003-.427 0-.855 0-1.403 3.383 2.797 3.506 2.835 6.238 2.057V77.64l-23.299.417c8.864.463 17.728.055 26.565-.095.085.267.15.39.16.516.206 2.595.203 2.63-2.409 2.653-8.877.075-17.757.124-26.635.19-.508.003-1.015.066-1.523.1l-.01.39c.835.062 1.671.19 2.505.176 9.055-.152 18.11-.339 27.166-.484 1.026-.016 1.475-.335 1.357-1.409-.086-.783-.016-1.582-.016-2.494h-3.269c-.025-.544-.063-.974-.061-1.403.034-9.278.084-18.555.094-27.833 0-.83.219-1.382.882-1.92 1.533-1.244 2.2-2.945 2.316-4.894.14-2.357.336-4.71.477-7.068.05-.85.25-1.51-1.256-1.607-1.447-.094-2.823-1.204-4.242-1.843-.48-.216-.997-.355-1.496-.527.439.307.85.667 1.32.908.943.484 1.92.903 2.88 1.348-.271.235-.484.234-.686.279-1.835.407-3.453-.394-5.123-.904l1.202 1.132c-2.018-.413-3.928.888-5.234-1.085.125.694.097 1.2-.867 1.197-3.094-.014-6.189.028-9.284.064-.71.008-.99-.271-1.117-1-.303-1.745-.756-3.462-1.113-5.198-.337-1.636-.628-3.28-1.001-5.242 2.833 0 5.466-.035 8.095.042.335.01.775.54.958.927.717 1.514 1.313 3.085 2.027 4.601.739 1.573 1.563 3.106 2.35 4.657L77.1 30.49c.485.209.871.39 1.268.543 1.008.389 2.02.764 3.031 1.146-1.43-.779-2.834-1.612-4.3-2.318-.973-.468-1.127-1.235-1.352-2.319 1.612.739 2.959 1.395 4.338 1.974.947.397 1.94.687 2.911 1.025-2.165-1.067-4.314-2.169-6.502-3.187-1.013-.47-1.831-1.005-1.896-2.445l5.807 2.604c-2.087-2.028-5.525-2.02-6.904-5.077l5.096 2.243.152-.33c-.827-.403-1.71-.724-2.463-1.234-.601-.407-1.743-.32-1.88-1.485H15.791c.699-1.585 1.312-3.169 2.075-4.677 3.288-6.5 8.404-11.026 15.284-13.431a24.99 24.99 0 0 1 6.921-1.354c4.2-.207 8.419-.078 12.629-.015 1.139.017 2.274.302 3.41.464l.11-.378c-.498-.176-.985-.46-1.496-.513-6.404-.67-12.796-.607-19.118.687-8.185 1.674-13.833 6.75-17.96 13.701-.922 1.554-1.532 3.29-2.31 4.931-.141.296-.4.537-.605.803l-.472-.275c.708-1.635 1.35-3.303 2.142-4.896.894-1.8 1.924-3.532 2.896-5.294zm40.16-8.03l10.393 5.995c-.962-1.582-7.98-5.77-10.392-5.995zm9.057 3.15c-1.372-.918-2.675-1.967-4.132-2.723-2.105-1.092-4.32-1.971-6.49-2.942l-.196.27c.117.19.194.5.357.556 3.538 1.193 6.92 2.697 9.986 4.849.097.068.26.041.392.058l.083-.068zM55.381 6.41c-.53-.709-1.086-1.134-1.03-1.455.074-.435.618-.79.96-1.177.359.354.95.675 1.009 1.074.054.367-.464.817-.94 1.558zm-.046.101c.829-.003 1.86-.926 1.725-1.682-.165-.927-.638-1.619-1.78-1.589-1.085.028-1.516.702-1.636 1.587-.12.885.762 1.688 1.691 1.684zm18.811 5.636c.533.895 1.11 1.767 1.588 2.689.876 1.683 1.689 3.398 2.542 5.092.15.3.373.562.561.841.117-.056.233-.113.348-.17-.604-1.291-1.104-2.645-1.837-3.859-.964-1.596-2.112-3.08-3.18-4.614l-.022.021zm-4.834 1.642c1.083-.695.765-1.496.061-2.177-.709-.684-1.617-.618-2.264.049-.654.674-.683 1.54.074 2.24.755.695 1.526.931 2.174-.158-.353.02-.773.169-1.041.03-.436-.23-.772-.647-1.151-.984l1.088-1.12c.364.356.808.664 1.061 1.085.153.254.009.684-.002 1.035zm-46.859-1.791c.754-.492 1.255-1.064 1.6-.982.458.107.794.726 1.183 1.125-.388.362-.78 1.016-1.162 1.01-.446-.01-.882-.592-1.621-1.153zm1.566-1.519c-.897.108-1.528.531-1.546 1.57-.02 1.086.603 1.618 1.62 1.678.917.053 1.678-.767 1.613-1.696-.07-.98-.647-1.48-1.687-1.552zm39.632-1.515c1.074-.53.894-1.255.289-2.008-.594-.738-1.902-.823-2.451-.115-.568.732-.638 1.557.097 2.241.728.678 1.498.99 2.113-.166-.306.024-.612.054-.918.07-.749.04-1.3-.32-1.153-1.049.085-.416.634-.958 1.055-1.04.742-.147 1.08.424 1.047 1.155-.013.305-.052.608-.079.912zm7.532 9.945c.736-.54 1.231-1.148 1.523-1.062.454.132 1.009.705 1.066 1.149.042.327-.631 1.04-1 1.05-.416.012-.85-.572-1.59-1.137zm1.219-1.802c-.46.6-1.107 1.14-1.33 1.816-.244.744.832 1.653 1.706 1.637.881-.016 1.669-.858 1.61-1.72-.058-.86-.798-1.52-1.986-1.733zm-40.98-11.49c.5.725 1.066 1.187 1.015 1.567-.054.398-.764 1.05-1.07.991-.45-.085-1.017-.662-1.11-1.114-.062-.314.592-.77 1.165-1.444zm-1.687 1.557c-.015.88.792 1.792 1.622 1.7.908-.1 1.562-.589 1.619-1.592.054-.963-.641-1.646-1.64-1.643-.986.003-1.584.577-1.601 1.535zM19.84 20.275c-.589-.683-1.194-1.079-1.2-1.483-.004-.367.582-.948 1.012-1.07.656-.185 1.327.155 1.186.982-.077.455-.52.848-.998 1.571zm-.036-.005c1.082-.026 1.558-.644 1.544-1.618-.014-1.002-.692-1.517-1.602-1.632-.782-.098-1.741.973-1.631 1.774.132.955.687 1.51 1.69 1.476zM38.827 6.234c-.474-.72-1.003-1.172-.944-1.526.069-.41.769-1.091.995-1.021.48.149 1.02.655 1.157 1.124.077.263-.606.744-1.208 1.423zm-1.551-1.042c.393.3.938.93 1.624 1.179.68.246 1.751-.941 1.66-1.728-.111-.96-.717-1.56-1.681-1.54-.966.022-1.532.617-1.603 2.089zm39.19 13.275c-.941-2.717-2.594-5.017-4.706-7.025l4.707 7.025zM48.323 4.93c.656-.806.566-1.492-.279-2.12-.772-.574-1.711-.352-2.26.532-.498.802-.255 1.988.602 2.25.728.223 1.722.607 1.984-.71-.32.138-.673.435-.951.377-.472-.097-.983-.339-1.305-.68-.156-.165-.048-.85.167-1.023.317-.255.863-.42 1.263-.347.992.178.723 1.049.779 1.721zm25.846 7.194c-.521-.73-.943-1.564-1.584-2.17-1.293-1.216-2.705-2.309-4.069-3.452l-.083.069 5.714 5.574.022-.02z" fill="#756E63"/></svg>