<?xml version="1.0" standalone="no"?><!DOCTYPE svg PUBLIC "-//W3C//DTD SVG 1.1//EN" "http://www.w3.org/Graphics/SVG/1.1/DTD/svg11.dtd"><svg t="1596445782456" class="icon" viewBox="0 0 1024 1024" version="1.1" xmlns="http://www.w3.org/2000/svg" p-id="10892" xmlns:xlink="http://www.w3.org/1999/xlink" width="200" height="200"><defs><style type="text/css"></style></defs><path d="M951.649 463.535L511.633 126.914 71.635 463.535c-9.672 7.35-11.471 21.166-4.119 30.817 7.398 9.649 21.191 11.494 30.817 4.095l64.433-49.297v375.923c0 40.264 32.639 72.926 72.946 72.926h551.861c40.308 0 72.944-32.662 72.944-72.926V449.151l64.435 49.297c3.983 3.027 8.693 4.531 13.337 4.531 6.602 0 13.11-2.983 17.481-8.626 7.374-9.652 5.552-23.468-4.121-30.818zM637.631 618.689L511.677 746.145v0.091l-0.044-0.044-0.046 0.044v-0.091L385.633 618.689s-46.158-45.133-45.156-93.271c0.977-48.159 36.735-85.85 88.833-87.352 51.323-1.48 81.457 45.223 82.323 46.566 0.841-1.343 30.999-48.046 82.323-46.566 52.096 1.502 87.852 39.192 88.83 87.352 1.002 48.139-45.155 93.271-45.155 93.271z" fill="#EB6EA5" p-id="10893"></path></svg>